SplineFontDB: 3.0
FontName: DSEG14ClassicMini-Regular
FullName: DSEG14 Classic Mini-Regular
FamilyName: DSEG14 Classic Mini
Weight: Regular
Copyright: Created by Keshikan(https://twitter.com/keshinomi_88pro)\nwith FontForge 2.0 (http://fontforge.sf.net)
UComments: "2014-8-31: Created."
Version: 0.46
ItalicAngle: 0
UnderlinePosition: -100
UnderlineWidth: 50
Ascent: 1000
Descent: 0
InvalidEm: 0
LayerCount: 2
Layer: 0 0 "+gMyXYgAA" 1
Layer: 1 0 "+Uk2XYgAA" 0
XUID: [1021 682 390630330 14528854]
FSType: 8
OS2Version: 0
OS2_WeightWidthSlopeOnly: 0
OS2_UseTypoMetrics: 1
CreationTime: 1409488158
ModificationTime: 1584215048
PfmFamily: 17
TTFWeight: 400
TTFWidth: 5
LineGap: 90
VLineGap: 0
OS2TypoAscent: 0
OS2TypoAOffset: 1
OS2TypoDescent: 0
OS2TypoDOffset: 1
OS2TypoLinegap: 90
OS2WinAscent: 0
OS2WinAOffset: 1
OS2WinDescent: 0
OS2WinDOffset: 1
HheadAscent: 0
HheadAOffset: 1
HheadDescent: 0
HheadDOffset: 1
OS2Vendor: 'PfEd'
MarkAttachClasses: 1
DEI: 91125

StartChar: zero
Encoding: 48 48 0
Width: 816
VWidth: 200
Flags: HW
LayerCount: 2
Fore
SplineSet
315 407 m 1
 315 247 l 1
 253 139 l 1
 238 139 l 1
 238 298 l 1
 301 407 l 1
 315 407 l 1
163 969 m 1
 194 1000 l 1
 622 1000 l 1
 653 969 l 1
 592 907 l 1
 590 907 l 1
 454 907 l 1
 362 907 l 1
 226 907 l 1
 224 907 l 1
 163 969 l 1
130 64 m 1
 99 95 l 1
 99 477 l 1
 136 477 l 1
 145 467 l 1
 192 421 l 1
 192 218 l 1
 192 139 l 1
 192 125 l 1
 130 64 l 1
653 31 m 1
 622 0 l 1
 194 0 l 1
 163 31 l 1
 224 93 l 1
 226 93 l 1
 362 93 l 1
 454 93 l 1
 590 93 l 1
 592 93 l 1
 653 31 l 1
624 421 m 1
 680 477 l 1
 717 477 l 1
 717 95 l 1
 686 64 l 1
 624 125 l 1
 624 139 l 1
 624 218 l 1
 624 421 l 1
686 936 m 1
 717 905 l 1
 717 523 l 1
 680 523 l 1
 624 579 l 1
 624 607 l 1
 624 782 l 1
 624 861 l 1
 624 874 l 1
 686 936 l 1
563 861 m 1
 578 861 l 1
 578 702 l 1
 515 593 l 1
 501 593 l 1
 501 753 l 1
 563 861 l 1
192 579 m 1
 136 523 l 1
 99 523 l 1
 99 905 l 1
 130 936 l 1
 192 875 l 1
 192 861 l 1
 192 782 l 1
 192 579 l 1
EndSplineSet
EndChar

StartChar: eight
Encoding: 56 56 1
Width: 816
VWidth: 200
Flags: HW
LayerCount: 2
Fore
SplineSet
224 454 m 1
 178 500 l 1
 224 546 l 1
 328 546 l 1
 354 546 l 1
 381 499 l 1
 354 454 l 1
 238 454 l 1
 224 454 l 1
163 969 m 1
 194 1000 l 1
 622 1000 l 1
 653 969 l 1
 592 907 l 1
 590 907 l 1
 454 907 l 1
 362 907 l 1
 226 907 l 1
 224 907 l 1
 163 969 l 1
130 64 m 1
 99 95 l 1
 99 477 l 1
 136 477 l 1
 145 467 l 1
 192 421 l 1
 192 218 l 1
 192 139 l 1
 192 125 l 1
 130 64 l 1
653 31 m 1
 622 0 l 1
 194 0 l 1
 163 31 l 1
 224 93 l 1
 226 93 l 1
 362 93 l 1
 454 93 l 1
 590 93 l 1
 592 93 l 1
 653 31 l 1
624 421 m 1
 680 477 l 1
 717 477 l 1
 717 95 l 1
 686 64 l 1
 624 125 l 1
 624 139 l 1
 624 218 l 1
 624 421 l 1
686 936 m 1
 717 905 l 1
 717 523 l 1
 680 523 l 1
 624 579 l 1
 624 607 l 1
 624 782 l 1
 624 861 l 1
 624 874 l 1
 686 936 l 1
192 579 m 1
 136 523 l 1
 99 523 l 1
 99 905 l 1
 130 936 l 1
 192 875 l 1
 192 861 l 1
 192 782 l 1
 192 579 l 1
592 546 m 1
 638 500 l 1
 592 454 l 1
 578 454 l 1
 501 454 l 1
 461 454 l 1
 434 499 l 1
 462 546 l 1
 488 546 l 1
 592 546 l 1
EndSplineSet
EndChar

StartChar: one
Encoding: 49 49 2
Width: 816
VWidth: 200
Flags: HW
LayerCount: 2
Fore
SplineSet
624 421 m 1
 680 477 l 1
 717 477 l 1
 717 95 l 1
 686 64 l 1
 624 125 l 1
 624 139 l 1
 624 218 l 1
 624 421 l 1
686 936 m 1
 717 905 l 1
 717 523 l 1
 680 523 l 1
 624 579 l 1
 624 607 l 1
 624 782 l 1
 624 861 l 1
 624 874 l 1
 686 936 l 1
EndSplineSet
EndChar

StartChar: two
Encoding: 50 50 3
Width: 816
VWidth: 200
Flags: HW
LayerCount: 2
Fore
SplineSet
224 454 m 1
 178 500 l 1
 224 546 l 1
 328 546 l 1
 354 546 l 1
 381 499 l 1
 354 454 l 1
 238 454 l 1
 224 454 l 1
163 969 m 1
 194 1000 l 1
 622 1000 l 1
 653 969 l 1
 592 907 l 1
 590 907 l 1
 454 907 l 1
 362 907 l 1
 226 907 l 1
 224 907 l 1
 163 969 l 1
130 64 m 1
 99 95 l 1
 99 477 l 1
 136 477 l 1
 145 467 l 1
 192 421 l 1
 192 218 l 1
 192 139 l 1
 192 125 l 1
 130 64 l 1
653 31 m 1
 622 0 l 1
 194 0 l 1
 163 31 l 1
 224 93 l 1
 226 93 l 1
 362 93 l 1
 454 93 l 1
 590 93 l 1
 592 93 l 1
 653 31 l 1
686 936 m 1
 717 905 l 1
 717 523 l 1
 680 523 l 1
 624 579 l 1
 624 607 l 1
 624 782 l 1
 624 861 l 1
 624 874 l 1
 686 936 l 1
592 546 m 1
 638 500 l 1
 592 454 l 1
 578 454 l 1
 501 454 l 1
 461 454 l 1
 434 499 l 1
 462 546 l 1
 488 546 l 1
 592 546 l 1
EndSplineSet
EndChar

StartChar: three
Encoding: 51 51 4
Width: 816
VWidth: 200
Flags: HW
LayerCount: 2
Fore
SplineSet
224 454 m 1
 178 500 l 1
 224 546 l 1
 328 546 l 1
 354 546 l 1
 381 499 l 1
 354 454 l 1
 238 454 l 1
 224 454 l 1
163 969 m 1
 194 1000 l 1
 622 1000 l 1
 653 969 l 1
 592 907 l 1
 590 907 l 1
 454 907 l 1
 362 907 l 1
 226 907 l 1
 224 907 l 1
 163 969 l 1
653 31 m 1
 622 0 l 1
 194 0 l 1
 163 31 l 1
 224 93 l 1
 226 93 l 1
 362 93 l 1
 454 93 l 1
 590 93 l 1
 592 93 l 1
 653 31 l 1
624 421 m 1
 680 477 l 1
 717 477 l 1
 717 95 l 1
 686 64 l 1
 624 125 l 1
 624 139 l 1
 624 218 l 1
 624 421 l 1
686 936 m 1
 717 905 l 1
 717 523 l 1
 680 523 l 1
 624 579 l 1
 624 607 l 1
 624 782 l 1
 624 861 l 1
 624 874 l 1
 686 936 l 1
592 546 m 1
 638 500 l 1
 592 454 l 1
 578 454 l 1
 501 454 l 1
 461 454 l 1
 434 499 l 1
 462 546 l 1
 488 546 l 1
 592 546 l 1
EndSplineSet
EndChar

StartChar: four
Encoding: 52 52 5
Width: 816
VWidth: 200
Flags: HW
LayerCount: 2
Fore
SplineSet
224 454 m 1
 178 500 l 1
 224 546 l 1
 328 546 l 1
 354 546 l 1
 381 499 l 1
 354 454 l 1
 238 454 l 1
 224 454 l 1
624 421 m 1
 680 477 l 1
 717 477 l 1
 717 95 l 1
 686 64 l 1
 624 125 l 1
 624 139 l 1
 624 218 l 1
 624 421 l 1
686 936 m 1
 717 905 l 1
 717 523 l 1
 680 523 l 1
 624 579 l 1
 624 607 l 1
 624 782 l 1
 624 861 l 1
 624 874 l 1
 686 936 l 1
192 579 m 1
 136 523 l 1
 99 523 l 1
 99 905 l 1
 130 936 l 1
 192 875 l 1
 192 861 l 1
 192 782 l 1
 192 579 l 1
592 546 m 1
 638 500 l 1
 592 454 l 1
 578 454 l 1
 501 454 l 1
 461 454 l 1
 434 499 l 1
 462 546 l 1
 488 546 l 1
 592 546 l 1
EndSplineSet
EndChar

StartChar: five
Encoding: 53 53 6
Width: 816
VWidth: 200
Flags: HW
LayerCount: 2
Fore
SplineSet
224 454 m 1
 178 500 l 1
 224 546 l 1
 328 546 l 1
 354 546 l 1
 381 499 l 1
 354 454 l 1
 238 454 l 1
 224 454 l 1
163 969 m 1
 194 1000 l 1
 622 1000 l 1
 653 969 l 1
 592 907 l 1
 590 907 l 1
 454 907 l 1
 362 907 l 1
 226 907 l 1
 224 907 l 1
 163 969 l 1
653 31 m 1
 622 0 l 1
 194 0 l 1
 163 31 l 1
 224 93 l 1
 226 93 l 1
 362 93 l 1
 454 93 l 1
 590 93 l 1
 592 93 l 1
 653 31 l 1
624 421 m 1
 680 477 l 1
 717 477 l 1
 717 95 l 1
 686 64 l 1
 624 125 l 1
 624 139 l 1
 624 218 l 1
 624 421 l 1
192 579 m 1
 136 523 l 1
 99 523 l 1
 99 905 l 1
 130 936 l 1
 192 875 l 1
 192 861 l 1
 192 782 l 1
 192 579 l 1
592 546 m 1
 638 500 l 1
 592 454 l 1
 578 454 l 1
 501 454 l 1
 461 454 l 1
 434 499 l 1
 462 546 l 1
 488 546 l 1
 592 546 l 1
EndSplineSet
EndChar

StartChar: six
Encoding: 54 54 7
Width: 816
VWidth: 200
Flags: HW
LayerCount: 2
Fore
SplineSet
224 454 m 1
 178 500 l 1
 224 546 l 1
 328 546 l 1
 354 546 l 1
 381 499 l 1
 354 454 l 1
 238 454 l 1
 224 454 l 1
163 969 m 1
 194 1000 l 1
 622 1000 l 1
 653 969 l 1
 592 907 l 1
 590 907 l 1
 454 907 l 1
 362 907 l 1
 226 907 l 1
 224 907 l 1
 163 969 l 1
130 64 m 1
 99 95 l 1
 99 477 l 1
 136 477 l 1
 145 467 l 1
 192 421 l 1
 192 218 l 1
 192 139 l 1
 192 125 l 1
 130 64 l 1
653 31 m 1
 622 0 l 1
 194 0 l 1
 163 31 l 1
 224 93 l 1
 226 93 l 1
 362 93 l 1
 454 93 l 1
 590 93 l 1
 592 93 l 1
 653 31 l 1
624 421 m 1
 680 477 l 1
 717 477 l 1
 717 95 l 1
 686 64 l 1
 624 125 l 1
 624 139 l 1
 624 218 l 1
 624 421 l 1
192 579 m 1
 136 523 l 1
 99 523 l 1
 99 905 l 1
 130 936 l 1
 192 875 l 1
 192 861 l 1
 192 782 l 1
 192 579 l 1
592 546 m 1
 638 500 l 1
 592 454 l 1
 578 454 l 1
 501 454 l 1
 461 454 l 1
 434 499 l 1
 462 546 l 1
 488 546 l 1
 592 546 l 1
EndSplineSet
EndChar

StartChar: seven
Encoding: 55 55 8
Width: 816
VWidth: 200
Flags: HW
LayerCount: 2
Fore
SplineSet
163 969 m 1
 194 1000 l 1
 622 1000 l 1
 653 969 l 1
 592 907 l 1
 590 907 l 1
 454 907 l 1
 362 907 l 1
 226 907 l 1
 224 907 l 1
 163 969 l 1
624 421 m 1
 680 477 l 1
 717 477 l 1
 717 95 l 1
 686 64 l 1
 624 125 l 1
 624 139 l 1
 624 218 l 1
 624 421 l 1
686 936 m 1
 717 905 l 1
 717 523 l 1
 680 523 l 1
 624 579 l 1
 624 607 l 1
 624 782 l 1
 624 861 l 1
 624 874 l 1
 686 936 l 1
192 579 m 1
 136 523 l 1
 99 523 l 1
 99 905 l 1
 130 936 l 1
 192 875 l 1
 192 861 l 1
 192 782 l 1
 192 579 l 1
EndSplineSet
EndChar

StartChar: nine
Encoding: 57 57 9
Width: 816
VWidth: 200
Flags: HW
LayerCount: 2
Fore
SplineSet
224 454 m 1
 178 500 l 1
 224 546 l 1
 328 546 l 1
 354 546 l 1
 381 499 l 1
 354 454 l 1
 238 454 l 1
 224 454 l 1
163 969 m 1
 194 1000 l 1
 622 1000 l 1
 653 969 l 1
 592 907 l 1
 590 907 l 1
 454 907 l 1
 362 907 l 1
 226 907 l 1
 224 907 l 1
 163 969 l 1
653 31 m 1
 622 0 l 1
 194 0 l 1
 163 31 l 1
 224 93 l 1
 226 93 l 1
 362 93 l 1
 454 93 l 1
 590 93 l 1
 592 93 l 1
 653 31 l 1
624 421 m 1
 680 477 l 1
 717 477 l 1
 717 95 l 1
 686 64 l 1
 624 125 l 1
 624 139 l 1
 624 218 l 1
 624 421 l 1
686 936 m 1
 717 905 l 1
 717 523 l 1
 680 523 l 1
 624 579 l 1
 624 607 l 1
 624 782 l 1
 624 861 l 1
 624 874 l 1
 686 936 l 1
192 579 m 1
 136 523 l 1
 99 523 l 1
 99 905 l 1
 130 936 l 1
 192 875 l 1
 192 861 l 1
 192 782 l 1
 192 579 l 1
592 546 m 1
 638 500 l 1
 592 454 l 1
 578 454 l 1
 501 454 l 1
 461 454 l 1
 434 499 l 1
 462 546 l 1
 488 546 l 1
 592 546 l 1
EndSplineSet
EndChar

StartChar: A
Encoding: 65 65 10
Width: 816
VWidth: 200
Flags: HW
LayerCount: 2
Fore
SplineSet
224 454 m 1
 178 500 l 1
 224 546 l 1
 328 546 l 1
 354 546 l 1
 381 499 l 1
 354 454 l 1
 238 454 l 1
 224 454 l 1
163 969 m 1
 194 1000 l 1
 622 1000 l 1
 653 969 l 1
 592 907 l 1
 590 907 l 1
 454 907 l 1
 362 907 l 1
 226 907 l 1
 224 907 l 1
 163 969 l 1
130 64 m 1
 99 95 l 1
 99 477 l 1
 136 477 l 1
 145 467 l 1
 192 421 l 1
 192 218 l 1
 192 139 l 1
 192 125 l 1
 130 64 l 1
624 421 m 1
 680 477 l 1
 717 477 l 1
 717 95 l 1
 686 64 l 1
 624 125 l 1
 624 139 l 1
 624 218 l 1
 624 421 l 1
686 936 m 1
 717 905 l 1
 717 523 l 1
 680 523 l 1
 624 579 l 1
 624 607 l 1
 624 782 l 1
 624 861 l 1
 624 874 l 1
 686 936 l 1
192 579 m 1
 136 523 l 1
 99 523 l 1
 99 905 l 1
 130 936 l 1
 192 875 l 1
 192 861 l 1
 192 782 l 1
 192 579 l 1
592 546 m 1
 638 500 l 1
 592 454 l 1
 578 454 l 1
 501 454 l 1
 461 454 l 1
 434 499 l 1
 462 546 l 1
 488 546 l 1
 592 546 l 1
EndSplineSet
EndChar

StartChar: B
Encoding: 66 66 11
Width: 816
VWidth: 200
Flags: HW
LayerCount: 2
Fore
SplineSet
454 157 m 1
 454 139 l 1
 362 139 l 1
 362 327 l 1
 362 373 l 1
 408 453 l 1
 454 372 l 1
 454 327 l 1
 454 157 l 1
163 969 m 1
 194 1000 l 1
 622 1000 l 1
 653 969 l 1
 592 907 l 1
 590 907 l 1
 454 907 l 1
 362 907 l 1
 226 907 l 1
 224 907 l 1
 163 969 l 1
362 861 m 1
 454 861 l 1
 454 673 l 1
 454 627 l 1
 408 546 l 1
 362 625 l 1
 362 673 l 1
 362 861 l 1
653 31 m 1
 622 0 l 1
 194 0 l 1
 163 31 l 1
 224 93 l 1
 226 93 l 1
 362 93 l 1
 454 93 l 1
 590 93 l 1
 592 93 l 1
 653 31 l 1
624 421 m 1
 680 477 l 1
 717 477 l 1
 717 95 l 1
 686 64 l 1
 624 125 l 1
 624 139 l 1
 624 218 l 1
 624 421 l 1
686 936 m 1
 717 905 l 1
 717 523 l 1
 680 523 l 1
 624 579 l 1
 624 607 l 1
 624 782 l 1
 624 861 l 1
 624 874 l 1
 686 936 l 1
592 546 m 1
 638 500 l 1
 592 454 l 1
 578 454 l 1
 501 454 l 1
 461 454 l 1
 434 499 l 1
 462 546 l 1
 488 546 l 1
 592 546 l 1
EndSplineSet
EndChar

StartChar: C
Encoding: 67 67 12
Width: 816
VWidth: 200
Flags: HW
LayerCount: 2
Fore
SplineSet
163 969 m 1
 194 1000 l 1
 622 1000 l 1
 653 969 l 1
 592 907 l 1
 590 907 l 1
 454 907 l 1
 362 907 l 1
 226 907 l 1
 224 907 l 1
 163 969 l 1
130 64 m 1
 99 95 l 1
 99 477 l 1
 136 477 l 1
 145 467 l 1
 192 421 l 1
 192 218 l 1
 192 139 l 1
 192 125 l 1
 130 64 l 1
653 31 m 1
 622 0 l 1
 194 0 l 1
 163 31 l 1
 224 93 l 1
 226 93 l 1
 362 93 l 1
 454 93 l 1
 590 93 l 1
 592 93 l 1
 653 31 l 1
192 579 m 1
 136 523 l 1
 99 523 l 1
 99 905 l 1
 130 936 l 1
 192 875 l 1
 192 861 l 1
 192 782 l 1
 192 579 l 1
EndSplineSet
EndChar

StartChar: D
Encoding: 68 68 13
Width: 816
VWidth: 200
Flags: HW
LayerCount: 2
Fore
SplineSet
454 157 m 1
 454 139 l 1
 362 139 l 1
 362 327 l 1
 362 373 l 1
 408 453 l 1
 454 372 l 1
 454 327 l 1
 454 157 l 1
163 969 m 1
 194 1000 l 1
 622 1000 l 1
 653 969 l 1
 592 907 l 1
 590 907 l 1
 454 907 l 1
 362 907 l 1
 226 907 l 1
 224 907 l 1
 163 969 l 1
362 861 m 1
 454 861 l 1
 454 673 l 1
 454 627 l 1
 408 546 l 1
 362 625 l 1
 362 673 l 1
 362 861 l 1
653 31 m 1
 622 0 l 1
 194 0 l 1
 163 31 l 1
 224 93 l 1
 226 93 l 1
 362 93 l 1
 454 93 l 1
 590 93 l 1
 592 93 l 1
 653 31 l 1
624 421 m 1
 680 477 l 1
 717 477 l 1
 717 95 l 1
 686 64 l 1
 624 125 l 1
 624 139 l 1
 624 218 l 1
 624 421 l 1
686 936 m 1
 717 905 l 1
 717 523 l 1
 680 523 l 1
 624 579 l 1
 624 607 l 1
 624 782 l 1
 624 861 l 1
 624 874 l 1
 686 936 l 1
EndSplineSet
EndChar

StartChar: E
Encoding: 69 69 14
Width: 816
VWidth: 200
Flags: HW
LayerCount: 2
Fore
SplineSet
224 454 m 1
 178 500 l 1
 224 546 l 1
 328 546 l 1
 354 546 l 1
 381 499 l 1
 354 454 l 1
 238 454 l 1
 224 454 l 1
163 969 m 1
 194 1000 l 1
 622 1000 l 1
 653 969 l 1
 592 907 l 1
 590 907 l 1
 454 907 l 1
 362 907 l 1
 226 907 l 1
 224 907 l 1
 163 969 l 1
130 64 m 1
 99 95 l 1
 99 477 l 1
 136 477 l 1
 145 467 l 1
 192 421 l 1
 192 218 l 1
 192 139 l 1
 192 125 l 1
 130 64 l 1
653 31 m 1
 622 0 l 1
 194 0 l 1
 163 31 l 1
 224 93 l 1
 226 93 l 1
 362 93 l 1
 454 93 l 1
 590 93 l 1
 592 93 l 1
 653 31 l 1
192 579 m 1
 136 523 l 1
 99 523 l 1
 99 905 l 1
 130 936 l 1
 192 875 l 1
 192 861 l 1
 192 782 l 1
 192 579 l 1
592 546 m 1
 638 500 l 1
 592 454 l 1
 578 454 l 1
 501 454 l 1
 461 454 l 1
 434 499 l 1
 462 546 l 1
 488 546 l 1
 592 546 l 1
EndSplineSet
EndChar

StartChar: F
Encoding: 70 70 15
Width: 816
VWidth: 200
Flags: HW
LayerCount: 2
Fore
SplineSet
224 454 m 1
 178 500 l 1
 224 546 l 1
 328 546 l 1
 354 546 l 1
 381 499 l 1
 354 454 l 1
 238 454 l 1
 224 454 l 1
163 969 m 1
 194 1000 l 1
 622 1000 l 1
 653 969 l 1
 592 907 l 1
 590 907 l 1
 454 907 l 1
 362 907 l 1
 226 907 l 1
 224 907 l 1
 163 969 l 1
130 64 m 1
 99 95 l 1
 99 477 l 1
 136 477 l 1
 145 467 l 1
 192 421 l 1
 192 218 l 1
 192 139 l 1
 192 125 l 1
 130 64 l 1
192 579 m 1
 136 523 l 1
 99 523 l 1
 99 905 l 1
 130 936 l 1
 192 875 l 1
 192 861 l 1
 192 782 l 1
 192 579 l 1
592 546 m 1
 638 500 l 1
 592 454 l 1
 578 454 l 1
 501 454 l 1
 461 454 l 1
 434 499 l 1
 462 546 l 1
 488 546 l 1
 592 546 l 1
EndSplineSet
EndChar

StartChar: G
Encoding: 71 71 16
Width: 816
VWidth: 200
Flags: HW
LayerCount: 2
Fore
SplineSet
163 969 m 1
 194 1000 l 1
 622 1000 l 1
 653 969 l 1
 592 907 l 1
 590 907 l 1
 454 907 l 1
 362 907 l 1
 226 907 l 1
 224 907 l 1
 163 969 l 1
130 64 m 1
 99 95 l 1
 99 477 l 1
 136 477 l 1
 145 467 l 1
 192 421 l 1
 192 218 l 1
 192 139 l 1
 192 125 l 1
 130 64 l 1
653 31 m 1
 622 0 l 1
 194 0 l 1
 163 31 l 1
 224 93 l 1
 226 93 l 1
 362 93 l 1
 454 93 l 1
 590 93 l 1
 592 93 l 1
 653 31 l 1
624 421 m 1
 680 477 l 1
 717 477 l 1
 717 95 l 1
 686 64 l 1
 624 125 l 1
 624 139 l 1
 624 218 l 1
 624 421 l 1
192 579 m 1
 136 523 l 1
 99 523 l 1
 99 905 l 1
 130 936 l 1
 192 875 l 1
 192 861 l 1
 192 782 l 1
 192 579 l 1
592 546 m 1
 638 500 l 1
 592 454 l 1
 578 454 l 1
 501 454 l 1
 461 454 l 1
 434 499 l 1
 462 546 l 1
 488 546 l 1
 592 546 l 1
EndSplineSet
EndChar

StartChar: H
Encoding: 72 72 17
Width: 816
VWidth: 200
Flags: HW
LayerCount: 2
Fore
SplineSet
224 454 m 1
 178 500 l 1
 224 546 l 1
 328 546 l 1
 354 546 l 1
 381 499 l 1
 354 454 l 1
 238 454 l 1
 224 454 l 1
130 64 m 1
 99 95 l 1
 99 477 l 1
 136 477 l 1
 145 467 l 1
 192 421 l 1
 192 218 l 1
 192 139 l 1
 192 125 l 1
 130 64 l 1
624 421 m 1
 680 477 l 1
 717 477 l 1
 717 95 l 1
 686 64 l 1
 624 125 l 1
 624 139 l 1
 624 218 l 1
 624 421 l 1
686 936 m 1
 717 905 l 1
 717 523 l 1
 680 523 l 1
 624 579 l 1
 624 607 l 1
 624 782 l 1
 624 861 l 1
 624 874 l 1
 686 936 l 1
192 579 m 1
 136 523 l 1
 99 523 l 1
 99 905 l 1
 130 936 l 1
 192 875 l 1
 192 861 l 1
 192 782 l 1
 192 579 l 1
592 546 m 1
 638 500 l 1
 592 454 l 1
 578 454 l 1
 501 454 l 1
 461 454 l 1
 434 499 l 1
 462 546 l 1
 488 546 l 1
 592 546 l 1
EndSplineSet
EndChar

StartChar: I
Encoding: 73 73 18
Width: 816
VWidth: 200
Flags: HW
LayerCount: 2
Fore
SplineSet
454 157 m 1
 454 139 l 1
 362 139 l 1
 362 327 l 1
 362 373 l 1
 408 453 l 1
 454 372 l 1
 454 327 l 1
 454 157 l 1
163 969 m 1
 194 1000 l 1
 622 1000 l 1
 653 969 l 1
 592 907 l 1
 590 907 l 1
 454 907 l 1
 362 907 l 1
 226 907 l 1
 224 907 l 1
 163 969 l 1
362 861 m 1
 454 861 l 1
 454 673 l 1
 454 627 l 1
 408 546 l 1
 362 625 l 1
 362 673 l 1
 362 861 l 1
653 31 m 1
 622 0 l 1
 194 0 l 1
 163 31 l 1
 224 93 l 1
 226 93 l 1
 362 93 l 1
 454 93 l 1
 590 93 l 1
 592 93 l 1
 653 31 l 1
EndSplineSet
EndChar

StartChar: J
Encoding: 74 74 19
Width: 816
VWidth: 200
Flags: HW
LayerCount: 2
Fore
SplineSet
130 64 m 1
 99 95 l 1
 99 477 l 1
 136 477 l 1
 145 467 l 1
 192 421 l 1
 192 218 l 1
 192 139 l 1
 192 125 l 1
 130 64 l 1
653 31 m 1
 622 0 l 1
 194 0 l 1
 163 31 l 1
 224 93 l 1
 226 93 l 1
 362 93 l 1
 454 93 l 1
 590 93 l 1
 592 93 l 1
 653 31 l 1
624 421 m 1
 680 477 l 1
 717 477 l 1
 717 95 l 1
 686 64 l 1
 624 125 l 1
 624 139 l 1
 624 218 l 1
 624 421 l 1
686 936 m 1
 717 905 l 1
 717 523 l 1
 680 523 l 1
 624 579 l 1
 624 607 l 1
 624 782 l 1
 624 861 l 1
 624 874 l 1
 686 936 l 1
EndSplineSet
EndChar

StartChar: K
Encoding: 75 75 20
Width: 816
VWidth: 200
Flags: HW
LayerCount: 2
Fore
SplineSet
224 454 m 1
 178 500 l 1
 224 546 l 1
 328 546 l 1
 354 546 l 1
 381 499 l 1
 354 454 l 1
 238 454 l 1
 224 454 l 1
501 407 m 1
 515 407 l 1
 578 298 l 1
 578 139 l 1
 563 139 l 1
 501 247 l 1
 501 407 l 1
130 64 m 1
 99 95 l 1
 99 477 l 1
 136 477 l 1
 145 467 l 1
 192 421 l 1
 192 218 l 1
 192 139 l 1
 192 125 l 1
 130 64 l 1
563 861 m 1
 578 861 l 1
 578 702 l 1
 515 593 l 1
 501 593 l 1
 501 753 l 1
 563 861 l 1
192 579 m 1
 136 523 l 1
 99 523 l 1
 99 905 l 1
 130 936 l 1
 192 875 l 1
 192 861 l 1
 192 782 l 1
 192 579 l 1
EndSplineSet
EndChar

StartChar: L
Encoding: 76 76 21
Width: 816
VWidth: 200
Flags: HW
LayerCount: 2
Fore
SplineSet
130 64 m 1
 99 95 l 1
 99 477 l 1
 136 477 l 1
 145 467 l 1
 192 421 l 1
 192 218 l 1
 192 139 l 1
 192 125 l 1
 130 64 l 1
653 31 m 1
 622 0 l 1
 194 0 l 1
 163 31 l 1
 224 93 l 1
 226 93 l 1
 362 93 l 1
 454 93 l 1
 590 93 l 1
 592 93 l 1
 653 31 l 1
192 579 m 1
 136 523 l 1
 99 523 l 1
 99 905 l 1
 130 936 l 1
 192 875 l 1
 192 861 l 1
 192 782 l 1
 192 579 l 1
EndSplineSet
EndChar

StartChar: M
Encoding: 77 77 22
Width: 816
VWidth: 200
Flags: HW
LayerCount: 2
Fore
SplineSet
454 157 m 1
 454 139 l 1
 362 139 l 1
 362 327 l 1
 362 373 l 1
 408 453 l 1
 454 372 l 1
 454 327 l 1
 454 157 l 1
315 593 m 1
 301 593 l 1
 238 702 l 1
 238 861 l 1
 253 861 l 1
 315 753 l 1
 315 593 l 1
130 64 m 1
 99 95 l 1
 99 477 l 1
 136 477 l 1
 145 467 l 1
 192 421 l 1
 192 218 l 1
 192 139 l 1
 192 125 l 1
 130 64 l 1
624 421 m 1
 680 477 l 1
 717 477 l 1
 717 95 l 1
 686 64 l 1
 624 125 l 1
 624 139 l 1
 624 218 l 1
 624 421 l 1
686 936 m 1
 717 905 l 1
 717 523 l 1
 680 523 l 1
 624 579 l 1
 624 607 l 1
 624 782 l 1
 624 861 l 1
 624 874 l 1
 686 936 l 1
563 861 m 1
 578 861 l 1
 578 702 l 1
 515 593 l 1
 501 593 l 1
 501 753 l 1
 563 861 l 1
192 579 m 1
 136 523 l 1
 99 523 l 1
 99 905 l 1
 130 936 l 1
 192 875 l 1
 192 861 l 1
 192 782 l 1
 192 579 l 1
EndSplineSet
EndChar

StartChar: N
Encoding: 78 78 23
Width: 816
VWidth: 200
Flags: HW
LayerCount: 2
Fore
SplineSet
315 593 m 1
 301 593 l 1
 238 702 l 1
 238 861 l 1
 253 861 l 1
 315 753 l 1
 315 593 l 1
501 407 m 1
 515 407 l 1
 578 298 l 1
 578 139 l 1
 563 139 l 1
 501 247 l 1
 501 407 l 1
130 64 m 1
 99 95 l 1
 99 477 l 1
 136 477 l 1
 145 467 l 1
 192 421 l 1
 192 218 l 1
 192 139 l 1
 192 125 l 1
 130 64 l 1
624 421 m 1
 680 477 l 1
 717 477 l 1
 717 95 l 1
 686 64 l 1
 624 125 l 1
 624 139 l 1
 624 218 l 1
 624 421 l 1
686 936 m 1
 717 905 l 1
 717 523 l 1
 680 523 l 1
 624 579 l 1
 624 607 l 1
 624 782 l 1
 624 861 l 1
 624 874 l 1
 686 936 l 1
192 579 m 1
 136 523 l 1
 99 523 l 1
 99 905 l 1
 130 936 l 1
 192 875 l 1
 192 861 l 1
 192 782 l 1
 192 579 l 1
EndSplineSet
EndChar

StartChar: O
Encoding: 79 79 24
Width: 816
VWidth: 200
Flags: HW
LayerCount: 2
Fore
SplineSet
163 969 m 1
 194 1000 l 1
 622 1000 l 1
 653 969 l 1
 592 907 l 1
 590 907 l 1
 454 907 l 1
 362 907 l 1
 226 907 l 1
 224 907 l 1
 163 969 l 1
130 64 m 1
 99 95 l 1
 99 477 l 1
 136 477 l 1
 145 467 l 1
 192 421 l 1
 192 218 l 1
 192 139 l 1
 192 125 l 1
 130 64 l 1
653 31 m 1
 622 0 l 1
 194 0 l 1
 163 31 l 1
 224 93 l 1
 226 93 l 1
 362 93 l 1
 454 93 l 1
 590 93 l 1
 592 93 l 1
 653 31 l 1
624 421 m 1
 680 477 l 1
 717 477 l 1
 717 95 l 1
 686 64 l 1
 624 125 l 1
 624 139 l 1
 624 218 l 1
 624 421 l 1
686 936 m 1
 717 905 l 1
 717 523 l 1
 680 523 l 1
 624 579 l 1
 624 607 l 1
 624 782 l 1
 624 861 l 1
 624 874 l 1
 686 936 l 1
192 579 m 1
 136 523 l 1
 99 523 l 1
 99 905 l 1
 130 936 l 1
 192 875 l 1
 192 861 l 1
 192 782 l 1
 192 579 l 1
EndSplineSet
EndChar

StartChar: P
Encoding: 80 80 25
Width: 816
VWidth: 200
Flags: HW
LayerCount: 2
Fore
SplineSet
224 454 m 1
 178 500 l 1
 224 546 l 1
 328 546 l 1
 354 546 l 1
 381 499 l 1
 354 454 l 1
 238 454 l 1
 224 454 l 1
163 969 m 1
 194 1000 l 1
 622 1000 l 1
 653 969 l 1
 592 907 l 1
 590 907 l 1
 454 907 l 1
 362 907 l 1
 226 907 l 1
 224 907 l 1
 163 969 l 1
130 64 m 1
 99 95 l 1
 99 477 l 1
 136 477 l 1
 145 467 l 1
 192 421 l 1
 192 218 l 1
 192 139 l 1
 192 125 l 1
 130 64 l 1
686 936 m 1
 717 905 l 1
 717 523 l 1
 680 523 l 1
 624 579 l 1
 624 607 l 1
 624 782 l 1
 624 861 l 1
 624 874 l 1
 686 936 l 1
192 579 m 1
 136 523 l 1
 99 523 l 1
 99 905 l 1
 130 936 l 1
 192 875 l 1
 192 861 l 1
 192 782 l 1
 192 579 l 1
592 546 m 1
 638 500 l 1
 592 454 l 1
 578 454 l 1
 501 454 l 1
 461 454 l 1
 434 499 l 1
 462 546 l 1
 488 546 l 1
 592 546 l 1
EndSplineSet
EndChar

StartChar: Q
Encoding: 81 81 26
Width: 816
VWidth: 200
Flags: HW
LayerCount: 2
Fore
SplineSet
163 969 m 1
 194 1000 l 1
 622 1000 l 1
 653 969 l 1
 592 907 l 1
 590 907 l 1
 454 907 l 1
 362 907 l 1
 226 907 l 1
 224 907 l 1
 163 969 l 1
501 407 m 1
 515 407 l 1
 578 298 l 1
 578 139 l 1
 563 139 l 1
 501 247 l 1
 501 407 l 1
130 64 m 1
 99 95 l 1
 99 477 l 1
 136 477 l 1
 145 467 l 1
 192 421 l 1
 192 218 l 1
 192 139 l 1
 192 125 l 1
 130 64 l 1
653 31 m 1
 622 0 l 1
 194 0 l 1
 163 31 l 1
 224 93 l 1
 226 93 l 1
 362 93 l 1
 454 93 l 1
 590 93 l 1
 592 93 l 1
 653 31 l 1
624 421 m 1
 680 477 l 1
 717 477 l 1
 717 95 l 1
 686 64 l 1
 624 125 l 1
 624 139 l 1
 624 218 l 1
 624 421 l 1
686 936 m 1
 717 905 l 1
 717 523 l 1
 680 523 l 1
 624 579 l 1
 624 607 l 1
 624 782 l 1
 624 861 l 1
 624 874 l 1
 686 936 l 1
192 579 m 1
 136 523 l 1
 99 523 l 1
 99 905 l 1
 130 936 l 1
 192 875 l 1
 192 861 l 1
 192 782 l 1
 192 579 l 1
EndSplineSet
EndChar

StartChar: R
Encoding: 82 82 27
Width: 816
VWidth: 200
Flags: HW
LayerCount: 2
Fore
SplineSet
224 454 m 1
 178 500 l 1
 224 546 l 1
 328 546 l 1
 354 546 l 1
 381 499 l 1
 354 454 l 1
 238 454 l 1
 224 454 l 1
163 969 m 1
 194 1000 l 1
 622 1000 l 1
 653 969 l 1
 592 907 l 1
 590 907 l 1
 454 907 l 1
 362 907 l 1
 226 907 l 1
 224 907 l 1
 163 969 l 1
501 407 m 1
 515 407 l 1
 578 298 l 1
 578 139 l 1
 563 139 l 1
 501 247 l 1
 501 407 l 1
130 64 m 1
 99 95 l 1
 99 477 l 1
 136 477 l 1
 145 467 l 1
 192 421 l 1
 192 218 l 1
 192 139 l 1
 192 125 l 1
 130 64 l 1
686 936 m 1
 717 905 l 1
 717 523 l 1
 680 523 l 1
 624 579 l 1
 624 607 l 1
 624 782 l 1
 624 861 l 1
 624 874 l 1
 686 936 l 1
192 579 m 1
 136 523 l 1
 99 523 l 1
 99 905 l 1
 130 936 l 1
 192 875 l 1
 192 861 l 1
 192 782 l 1
 192 579 l 1
592 546 m 1
 638 500 l 1
 592 454 l 1
 578 454 l 1
 501 454 l 1
 461 454 l 1
 434 499 l 1
 462 546 l 1
 488 546 l 1
 592 546 l 1
EndSplineSet
EndChar

StartChar: S
Encoding: 83 83 28
Width: 816
VWidth: 200
Flags: HW
LayerCount: 2
Fore
SplineSet
224 454 m 1
 178 500 l 1
 224 546 l 1
 328 546 l 1
 354 546 l 1
 381 499 l 1
 354 454 l 1
 238 454 l 1
 224 454 l 1
315 593 m 1
 301 593 l 1
 238 702 l 1
 238 861 l 1
 253 861 l 1
 315 753 l 1
 315 593 l 1
163 969 m 1
 194 1000 l 1
 622 1000 l 1
 653 969 l 1
 592 907 l 1
 590 907 l 1
 454 907 l 1
 362 907 l 1
 226 907 l 1
 224 907 l 1
 163 969 l 1
501 407 m 1
 515 407 l 1
 578 298 l 1
 578 139 l 1
 563 139 l 1
 501 247 l 1
 501 407 l 1
653 31 m 1
 622 0 l 1
 194 0 l 1
 163 31 l 1
 224 93 l 1
 226 93 l 1
 362 93 l 1
 454 93 l 1
 590 93 l 1
 592 93 l 1
 653 31 l 1
624 421 m 1
 680 477 l 1
 717 477 l 1
 717 95 l 1
 686 64 l 1
 624 125 l 1
 624 139 l 1
 624 218 l 1
 624 421 l 1
192 579 m 1
 136 523 l 1
 99 523 l 1
 99 905 l 1
 130 936 l 1
 192 875 l 1
 192 861 l 1
 192 782 l 1
 192 579 l 1
592 546 m 1
 638 500 l 1
 592 454 l 1
 578 454 l 1
 501 454 l 1
 461 454 l 1
 434 499 l 1
 462 546 l 1
 488 546 l 1
 592 546 l 1
EndSplineSet
EndChar

StartChar: T
Encoding: 84 84 29
Width: 816
VWidth: 200
Flags: HW
LayerCount: 2
Fore
SplineSet
454 157 m 1
 454 139 l 1
 362 139 l 1
 362 327 l 1
 362 373 l 1
 408 453 l 1
 454 372 l 1
 454 327 l 1
 454 157 l 1
163 969 m 1
 194 1000 l 1
 622 1000 l 1
 653 969 l 1
 592 907 l 1
 590 907 l 1
 454 907 l 1
 362 907 l 1
 226 907 l 1
 224 907 l 1
 163 969 l 1
362 861 m 1
 454 861 l 1
 454 673 l 1
 454 627 l 1
 408 546 l 1
 362 625 l 1
 362 673 l 1
 362 861 l 1
EndSplineSet
EndChar

StartChar: U
Encoding: 85 85 30
Width: 816
VWidth: 200
Flags: HW
LayerCount: 2
Fore
SplineSet
130 64 m 1
 99 95 l 1
 99 477 l 1
 136 477 l 1
 145 467 l 1
 192 421 l 1
 192 218 l 1
 192 139 l 1
 192 125 l 1
 130 64 l 1
653 31 m 1
 622 0 l 1
 194 0 l 1
 163 31 l 1
 224 93 l 1
 226 93 l 1
 362 93 l 1
 454 93 l 1
 590 93 l 1
 592 93 l 1
 653 31 l 1
624 421 m 1
 680 477 l 1
 717 477 l 1
 717 95 l 1
 686 64 l 1
 624 125 l 1
 624 139 l 1
 624 218 l 1
 624 421 l 1
686 936 m 1
 717 905 l 1
 717 523 l 1
 680 523 l 1
 624 579 l 1
 624 607 l 1
 624 782 l 1
 624 861 l 1
 624 874 l 1
 686 936 l 1
192 579 m 1
 136 523 l 1
 99 523 l 1
 99 905 l 1
 130 936 l 1
 192 875 l 1
 192 861 l 1
 192 782 l 1
 192 579 l 1
EndSplineSet
EndChar

StartChar: V
Encoding: 86 86 31
Width: 816
VWidth: 200
Flags: HW
LayerCount: 2
Fore
SplineSet
315 407 m 1
 315 247 l 1
 253 139 l 1
 238 139 l 1
 238 298 l 1
 301 407 l 1
 315 407 l 1
130 64 m 1
 99 95 l 1
 99 477 l 1
 136 477 l 1
 145 467 l 1
 192 421 l 1
 192 218 l 1
 192 139 l 1
 192 125 l 1
 130 64 l 1
563 861 m 1
 578 861 l 1
 578 702 l 1
 515 593 l 1
 501 593 l 1
 501 753 l 1
 563 861 l 1
192 579 m 1
 136 523 l 1
 99 523 l 1
 99 905 l 1
 130 936 l 1
 192 875 l 1
 192 861 l 1
 192 782 l 1
 192 579 l 1
EndSplineSet
EndChar

StartChar: W
Encoding: 87 87 32
Width: 816
VWidth: 200
Flags: HW
LayerCount: 2
Fore
SplineSet
315 407 m 1
 315 247 l 1
 253 139 l 1
 238 139 l 1
 238 298 l 1
 301 407 l 1
 315 407 l 1
501 407 m 1
 515 407 l 1
 578 298 l 1
 578 139 l 1
 563 139 l 1
 501 247 l 1
 501 407 l 1
362 861 m 1
 454 861 l 1
 454 673 l 1
 454 627 l 1
 408 546 l 1
 362 625 l 1
 362 673 l 1
 362 861 l 1
130 64 m 1
 99 95 l 1
 99 477 l 1
 136 477 l 1
 145 467 l 1
 192 421 l 1
 192 218 l 1
 192 139 l 1
 192 125 l 1
 130 64 l 1
624 421 m 1
 680 477 l 1
 717 477 l 1
 717 95 l 1
 686 64 l 1
 624 125 l 1
 624 139 l 1
 624 218 l 1
 624 421 l 1
686 936 m 1
 717 905 l 1
 717 523 l 1
 680 523 l 1
 624 579 l 1
 624 607 l 1
 624 782 l 1
 624 861 l 1
 624 874 l 1
 686 936 l 1
192 579 m 1
 136 523 l 1
 99 523 l 1
 99 905 l 1
 130 936 l 1
 192 875 l 1
 192 861 l 1
 192 782 l 1
 192 579 l 1
EndSplineSet
EndChar

StartChar: X
Encoding: 88 88 33
Width: 816
VWidth: 200
Flags: HW
LayerCount: 2
Fore
SplineSet
315 407 m 1
 315 247 l 1
 253 139 l 1
 238 139 l 1
 238 298 l 1
 301 407 l 1
 315 407 l 1
315 593 m 1
 301 593 l 1
 238 702 l 1
 238 861 l 1
 253 861 l 1
 315 753 l 1
 315 593 l 1
501 407 m 1
 515 407 l 1
 578 298 l 1
 578 139 l 1
 563 139 l 1
 501 247 l 1
 501 407 l 1
563 861 m 1
 578 861 l 1
 578 702 l 1
 515 593 l 1
 501 593 l 1
 501 753 l 1
 563 861 l 1
EndSplineSet
EndChar

StartChar: Y
Encoding: 89 89 34
Width: 816
VWidth: 200
Flags: HW
LayerCount: 2
Fore
SplineSet
454 157 m 1
 454 139 l 1
 362 139 l 1
 362 327 l 1
 362 373 l 1
 408 453 l 1
 454 372 l 1
 454 327 l 1
 454 157 l 1
315 593 m 1
 301 593 l 1
 238 702 l 1
 238 861 l 1
 253 861 l 1
 315 753 l 1
 315 593 l 1
563 861 m 1
 578 861 l 1
 578 702 l 1
 515 593 l 1
 501 593 l 1
 501 753 l 1
 563 861 l 1
EndSplineSet
EndChar

StartChar: Z
Encoding: 90 90 35
Width: 816
VWidth: 200
Flags: HW
LayerCount: 2
Fore
SplineSet
315 407 m 1
 315 247 l 1
 253 139 l 1
 238 139 l 1
 238 298 l 1
 301 407 l 1
 315 407 l 1
163 969 m 1
 194 1000 l 1
 622 1000 l 1
 653 969 l 1
 592 907 l 1
 590 907 l 1
 454 907 l 1
 362 907 l 1
 226 907 l 1
 224 907 l 1
 163 969 l 1
653 31 m 1
 622 0 l 1
 194 0 l 1
 163 31 l 1
 224 93 l 1
 226 93 l 1
 362 93 l 1
 454 93 l 1
 590 93 l 1
 592 93 l 1
 653 31 l 1
563 861 m 1
 578 861 l 1
 578 702 l 1
 515 593 l 1
 501 593 l 1
 501 753 l 1
 563 861 l 1
EndSplineSet
EndChar

StartChar: hyphen
Encoding: 45 45 36
Width: 816
VWidth: 200
Flags: HW
LayerCount: 2
Fore
SplineSet
224 454 m 1
 178 500 l 1
 224 546 l 1
 328 546 l 1
 354 546 l 1
 381 499 l 1
 354 454 l 1
 238 454 l 1
 224 454 l 1
592 546 m 1
 638 500 l 1
 592 454 l 1
 578 454 l 1
 501 454 l 1
 461 454 l 1
 434 499 l 1
 462 546 l 1
 488 546 l 1
 592 546 l 1
EndSplineSet
EndChar

StartChar: colon
Encoding: 58 58 37
Width: 200
VWidth: 0
Flags: HW
LayerCount: 2
Fore
SplineSet
162 693 m 0
 162 684 160 676 157 669 c 0
 154 662 150 655 144 649 c 0
 138 643 131 639 124 636 c 0
 117 633 109 631 100 631 c 0
 91 631 83 633 76 636 c 0
 69 639 62 643 56 649 c 0
 50 655 46 662 43 669 c 0
 40 676 38 684 38 693 c 0
 38 702 40 710 43 717 c 0
 46 724 50 730 56 736 c 0
 62 742 69 747 76 750 c 0
 83 753 91 754 100 754 c 0
 109 754 117 753 124 750 c 0
 131 747 138 742 144 736 c 0
 150 730 154 724 157 717 c 0
 160 710 162 702 162 693 c 0
162 281 m 0
 162 272 160 264 157 257 c 0
 154 250 150 243 144 237 c 0
 138 231 131 227 124 224 c 0
 117 221 109 219 100 219 c 0
 91 219 83 221 76 224 c 0
 69 227 62 231 56 237 c 0
 50 243 46 250 43 257 c 0
 40 264 38 272 38 281 c 0
 38 290 40 298 43 305 c 0
 46 312 50 318 56 324 c 0
 62 330 69 335 76 338 c 0
 83 341 91 342 100 342 c 0
 109 342 117 341 124 338 c 0
 131 335 138 330 144 324 c 0
 150 318 154 312 157 305 c 0
 160 298 162 290 162 281 c 0
EndSplineSet
EndChar

StartChar: period
Encoding: 46 46 38
Width: 0
VWidth: 200
Flags: HW
LayerCount: 2
Fore
SplineSet
62 62 m 0
 62 53 60 45 57 38 c 0
 54 31 50 24 44 18 c 0
 38 12 31 8 24 5 c 0
 17 2 9 0 0 0 c 0
 -9 0 -17 2 -24 5 c 0
 -31 8 -38 12 -44 18 c 0
 -50 24 -54 31 -57 38 c 0
 -60 45 -62 53 -62 62 c 0
 -62 71 -60 79 -57 86 c 0
 -54 93 -50 100 -44 106 c 0
 -38 112 -31 116 -24 119 c 0
 -17 122 -9 124 0 124 c 0
 9 124 17 122 24 119 c 0
 31 116 38 112 44 106 c 0
 50 100 54 93 57 86 c 0
 60 79 62 71 62 62 c 0
EndSplineSet
EndChar

StartChar: less
Encoding: 60 60 39
Width: 816
VWidth: 200
Flags: HW
LayerCount: 2
Fore
SplineSet
315 407 m 1
 315 247 l 1
 253 139 l 1
 238 139 l 1
 238 298 l 1
 301 407 l 1
 315 407 l 1
653 31 m 1
 622 0 l 1
 194 0 l 1
 163 31 l 1
 224 93 l 1
 226 93 l 1
 362 93 l 1
 454 93 l 1
 590 93 l 1
 592 93 l 1
 653 31 l 1
563 861 m 1
 578 861 l 1
 578 702 l 1
 515 593 l 1
 501 593 l 1
 501 753 l 1
 563 861 l 1
EndSplineSet
EndChar

StartChar: equal
Encoding: 61 61 40
Width: 816
VWidth: 200
Flags: HW
LayerCount: 2
Fore
SplineSet
224 454 m 1
 178 500 l 1
 224 546 l 1
 328 546 l 1
 354 546 l 1
 381 499 l 1
 354 454 l 1
 238 454 l 1
 224 454 l 1
653 31 m 1
 622 0 l 1
 194 0 l 1
 163 31 l 1
 224 93 l 1
 226 93 l 1
 362 93 l 1
 454 93 l 1
 590 93 l 1
 592 93 l 1
 653 31 l 1
592 546 m 1
 638 500 l 1
 592 454 l 1
 578 454 l 1
 501 454 l 1
 461 454 l 1
 434 499 l 1
 462 546 l 1
 488 546 l 1
 592 546 l 1
EndSplineSet
EndChar

StartChar: greater
Encoding: 62 62 41
Width: 816
VWidth: 200
Flags: HW
LayerCount: 2
Fore
SplineSet
315 593 m 1
 301 593 l 1
 238 702 l 1
 238 861 l 1
 253 861 l 1
 315 753 l 1
 315 593 l 1
501 407 m 1
 515 407 l 1
 578 298 l 1
 578 139 l 1
 563 139 l 1
 501 247 l 1
 501 407 l 1
653 31 m 1
 622 0 l 1
 194 0 l 1
 163 31 l 1
 224 93 l 1
 226 93 l 1
 362 93 l 1
 454 93 l 1
 590 93 l 1
 592 93 l 1
 653 31 l 1
EndSplineSet
EndChar

StartChar: question
Encoding: 63 63 42
Width: 816
VWidth: 200
Flags: HW
LayerCount: 2
Fore
SplineSet
454 157 m 1
 454 139 l 1
 362 139 l 1
 362 327 l 1
 362 373 l 1
 408 453 l 1
 454 372 l 1
 454 327 l 1
 454 157 l 1
163 969 m 1
 194 1000 l 1
 622 1000 l 1
 653 969 l 1
 592 907 l 1
 590 907 l 1
 454 907 l 1
 362 907 l 1
 226 907 l 1
 224 907 l 1
 163 969 l 1
686 936 m 1
 717 905 l 1
 717 523 l 1
 680 523 l 1
 624 579 l 1
 624 607 l 1
 624 782 l 1
 624 861 l 1
 624 874 l 1
 686 936 l 1
192 579 m 1
 136 523 l 1
 99 523 l 1
 99 905 l 1
 130 936 l 1
 192 875 l 1
 192 861 l 1
 192 782 l 1
 192 579 l 1
592 546 m 1
 638 500 l 1
 592 454 l 1
 578 454 l 1
 501 454 l 1
 461 454 l 1
 434 499 l 1
 462 546 l 1
 488 546 l 1
 592 546 l 1
EndSplineSet
EndChar

StartChar: at
Encoding: 64 64 43
Width: 816
VWidth: 200
Flags: HW
LayerCount: 2
Fore
SplineSet
454 157 m 1
 454 139 l 1
 362 139 l 1
 362 327 l 1
 362 373 l 1
 408 453 l 1
 454 372 l 1
 454 327 l 1
 454 157 l 1
163 969 m 1
 194 1000 l 1
 622 1000 l 1
 653 969 l 1
 592 907 l 1
 590 907 l 1
 454 907 l 1
 362 907 l 1
 226 907 l 1
 224 907 l 1
 163 969 l 1
130 64 m 1
 99 95 l 1
 99 477 l 1
 136 477 l 1
 145 467 l 1
 192 421 l 1
 192 218 l 1
 192 139 l 1
 192 125 l 1
 130 64 l 1
653 31 m 1
 622 0 l 1
 194 0 l 1
 163 31 l 1
 224 93 l 1
 226 93 l 1
 362 93 l 1
 454 93 l 1
 590 93 l 1
 592 93 l 1
 653 31 l 1
624 421 m 1
 680 477 l 1
 717 477 l 1
 717 95 l 1
 686 64 l 1
 624 125 l 1
 624 139 l 1
 624 218 l 1
 624 421 l 1
686 936 m 1
 717 905 l 1
 717 523 l 1
 680 523 l 1
 624 579 l 1
 624 607 l 1
 624 782 l 1
 624 861 l 1
 624 874 l 1
 686 936 l 1
192 579 m 1
 136 523 l 1
 99 523 l 1
 99 905 l 1
 130 936 l 1
 192 875 l 1
 192 861 l 1
 192 782 l 1
 192 579 l 1
592 546 m 1
 638 500 l 1
 592 454 l 1
 578 454 l 1
 501 454 l 1
 461 454 l 1
 434 499 l 1
 462 546 l 1
 488 546 l 1
 592 546 l 1
EndSplineSet
EndChar

StartChar: backslash
Encoding: 92 92 44
Width: 816
VWidth: 200
Flags: HW
LayerCount: 2
Fore
SplineSet
315 593 m 1
 301 593 l 1
 238 702 l 1
 238 861 l 1
 253 861 l 1
 315 753 l 1
 315 593 l 1
501 407 m 1
 515 407 l 1
 578 298 l 1
 578 139 l 1
 563 139 l 1
 501 247 l 1
 501 407 l 1
EndSplineSet
EndChar

StartChar: asciicircum
Encoding: 94 94 45
Width: 816
VWidth: 200
Flags: HW
LayerCount: 2
Fore
SplineSet
315 593 m 1
 301 593 l 1
 238 702 l 1
 238 861 l 1
 253 861 l 1
 315 753 l 1
 315 593 l 1
192 579 m 1
 136 523 l 1
 99 523 l 1
 99 905 l 1
 130 936 l 1
 192 875 l 1
 192 861 l 1
 192 782 l 1
 192 579 l 1
EndSplineSet
EndChar

StartChar: underscore
Encoding: 95 95 46
Width: 816
VWidth: 200
Flags: HW
LayerCount: 2
Fore
SplineSet
653 31 m 1
 622 0 l 1
 194 0 l 1
 163 31 l 1
 224 93 l 1
 226 93 l 1
 362 93 l 1
 454 93 l 1
 590 93 l 1
 592 93 l 1
 653 31 l 1
EndSplineSet
EndChar

StartChar: yen
Encoding: 165 165 47
Width: 816
VWidth: 200
Flags: HW
LayerCount: 2
Fore
SplineSet
454 157 m 1
 454 139 l 1
 362 139 l 1
 362 327 l 1
 362 373 l 1
 408 453 l 1
 454 372 l 1
 454 327 l 1
 454 157 l 1
224 454 m 1
 178 500 l 1
 224 546 l 1
 328 546 l 1
 354 546 l 1
 381 499 l 1
 354 454 l 1
 238 454 l 1
 224 454 l 1
315 593 m 1
 301 593 l 1
 238 702 l 1
 238 861 l 1
 253 861 l 1
 315 753 l 1
 315 593 l 1
563 861 m 1
 578 861 l 1
 578 702 l 1
 515 593 l 1
 501 593 l 1
 501 753 l 1
 563 861 l 1
592 546 m 1
 638 500 l 1
 592 454 l 1
 578 454 l 1
 501 454 l 1
 461 454 l 1
 434 499 l 1
 462 546 l 1
 488 546 l 1
 592 546 l 1
EndSplineSet
EndChar

StartChar: quotedbl
Encoding: 34 34 48
Width: 816
VWidth: 200
Flags: HW
LayerCount: 2
Fore
SplineSet
362 861 m 1
 454 861 l 1
 454 673 l 1
 454 627 l 1
 408 546 l 1
 362 625 l 1
 362 673 l 1
 362 861 l 1
192 579 m 1
 136 523 l 1
 99 523 l 1
 99 905 l 1
 130 936 l 1
 192 875 l 1
 192 861 l 1
 192 782 l 1
 192 579 l 1
EndSplineSet
EndChar

StartChar: quotesingle
Encoding: 39 39 49
Width: 816
VWidth: 200
Flags: HW
LayerCount: 2
Fore
SplineSet
362 861 m 1
 454 861 l 1
 454 673 l 1
 454 627 l 1
 408 546 l 1
 362 625 l 1
 362 673 l 1
 362 861 l 1
EndSplineSet
EndChar

StartChar: parenleft
Encoding: 40 40 50
Width: 816
VWidth: 200
Flags: HW
LayerCount: 2
Fore
SplineSet
501 407 m 1
 515 407 l 1
 578 298 l 1
 578 139 l 1
 563 139 l 1
 501 247 l 1
 501 407 l 1
563 861 m 1
 578 861 l 1
 578 702 l 1
 515 593 l 1
 501 593 l 1
 501 753 l 1
 563 861 l 1
EndSplineSet
EndChar

StartChar: parenright
Encoding: 41 41 51
Width: 816
VWidth: 200
Flags: HW
LayerCount: 2
Fore
SplineSet
315 407 m 1
 315 247 l 1
 253 139 l 1
 238 139 l 1
 238 298 l 1
 301 407 l 1
 315 407 l 1
315 593 m 1
 301 593 l 1
 238 702 l 1
 238 861 l 1
 253 861 l 1
 315 753 l 1
 315 593 l 1
EndSplineSet
EndChar

StartChar: asterisk
Encoding: 42 42 52
Width: 816
VWidth: 200
Flags: HW
LayerCount: 2
Fore
SplineSet
454 157 m 1
 454 139 l 1
 362 139 l 1
 362 327 l 1
 362 373 l 1
 408 453 l 1
 454 372 l 1
 454 327 l 1
 454 157 l 1
224 454 m 1
 178 500 l 1
 224 546 l 1
 328 546 l 1
 354 546 l 1
 381 499 l 1
 354 454 l 1
 238 454 l 1
 224 454 l 1
315 407 m 1
 315 247 l 1
 253 139 l 1
 238 139 l 1
 238 298 l 1
 301 407 l 1
 315 407 l 1
315 593 m 1
 301 593 l 1
 238 702 l 1
 238 861 l 1
 253 861 l 1
 315 753 l 1
 315 593 l 1
501 407 m 1
 515 407 l 1
 578 298 l 1
 578 139 l 1
 563 139 l 1
 501 247 l 1
 501 407 l 1
362 861 m 1
 454 861 l 1
 454 673 l 1
 454 627 l 1
 408 546 l 1
 362 625 l 1
 362 673 l 1
 362 861 l 1
563 861 m 1
 578 861 l 1
 578 702 l 1
 515 593 l 1
 501 593 l 1
 501 753 l 1
 563 861 l 1
592 546 m 1
 638 500 l 1
 592 454 l 1
 578 454 l 1
 501 454 l 1
 461 454 l 1
 434 499 l 1
 462 546 l 1
 488 546 l 1
 592 546 l 1
EndSplineSet
EndChar

StartChar: plus
Encoding: 43 43 53
Width: 816
VWidth: 200
Flags: HW
LayerCount: 2
Fore
SplineSet
454 157 m 1
 454 139 l 1
 362 139 l 1
 362 327 l 1
 362 373 l 1
 408 453 l 1
 454 372 l 1
 454 327 l 1
 454 157 l 1
224 454 m 1
 178 500 l 1
 224 546 l 1
 328 546 l 1
 354 546 l 1
 381 499 l 1
 354 454 l 1
 238 454 l 1
 224 454 l 1
362 861 m 1
 454 861 l 1
 454 673 l 1
 454 627 l 1
 408 546 l 1
 362 625 l 1
 362 673 l 1
 362 861 l 1
592 546 m 1
 638 500 l 1
 592 454 l 1
 578 454 l 1
 501 454 l 1
 461 454 l 1
 434 499 l 1
 462 546 l 1
 488 546 l 1
 592 546 l 1
EndSplineSet
EndChar

StartChar: slash
Encoding: 47 47 54
Width: 816
VWidth: 200
Flags: HW
LayerCount: 2
Fore
SplineSet
315 407 m 1
 315 247 l 1
 253 139 l 1
 238 139 l 1
 238 298 l 1
 301 407 l 1
 315 407 l 1
563 861 m 1
 578 861 l 1
 578 702 l 1
 515 593 l 1
 501 593 l 1
 501 753 l 1
 563 861 l 1
EndSplineSet
EndChar

StartChar: dollar
Encoding: 36 36 55
Width: 816
VWidth: 200
Flags: HW
LayerCount: 2
Fore
SplineSet
454 157 m 1
 454 139 l 1
 362 139 l 1
 362 327 l 1
 362 373 l 1
 408 453 l 1
 454 372 l 1
 454 327 l 1
 454 157 l 1
224 454 m 1
 178 500 l 1
 224 546 l 1
 328 546 l 1
 354 546 l 1
 381 499 l 1
 354 454 l 1
 238 454 l 1
 224 454 l 1
163 969 m 1
 194 1000 l 1
 622 1000 l 1
 653 969 l 1
 592 907 l 1
 590 907 l 1
 454 907 l 1
 362 907 l 1
 226 907 l 1
 224 907 l 1
 163 969 l 1
362 861 m 1
 454 861 l 1
 454 673 l 1
 454 627 l 1
 408 546 l 1
 362 625 l 1
 362 673 l 1
 362 861 l 1
653 31 m 1
 622 0 l 1
 194 0 l 1
 163 31 l 1
 224 93 l 1
 226 93 l 1
 362 93 l 1
 454 93 l 1
 590 93 l 1
 592 93 l 1
 653 31 l 1
624 421 m 1
 680 477 l 1
 717 477 l 1
 717 95 l 1
 686 64 l 1
 624 125 l 1
 624 139 l 1
 624 218 l 1
 624 421 l 1
192 579 m 1
 136 523 l 1
 99 523 l 1
 99 905 l 1
 130 936 l 1
 192 875 l 1
 192 861 l 1
 192 782 l 1
 192 579 l 1
592 546 m 1
 638 500 l 1
 592 454 l 1
 578 454 l 1
 501 454 l 1
 461 454 l 1
 434 499 l 1
 462 546 l 1
 488 546 l 1
 592 546 l 1
EndSplineSet
EndChar

StartChar: percent
Encoding: 37 37 56
Width: 816
VWidth: 200
Flags: HW
LayerCount: 2
Fore
SplineSet
224 454 m 1
 178 500 l 1
 224 546 l 1
 328 546 l 1
 354 546 l 1
 381 499 l 1
 354 454 l 1
 238 454 l 1
 224 454 l 1
315 407 m 1
 315 247 l 1
 253 139 l 1
 238 139 l 1
 238 298 l 1
 301 407 l 1
 315 407 l 1
315 593 m 1
 301 593 l 1
 238 702 l 1
 238 861 l 1
 253 861 l 1
 315 753 l 1
 315 593 l 1
501 407 m 1
 515 407 l 1
 578 298 l 1
 578 139 l 1
 563 139 l 1
 501 247 l 1
 501 407 l 1
624 421 m 1
 680 477 l 1
 717 477 l 1
 717 95 l 1
 686 64 l 1
 624 125 l 1
 624 139 l 1
 624 218 l 1
 624 421 l 1
563 861 m 1
 578 861 l 1
 578 702 l 1
 515 593 l 1
 501 593 l 1
 501 753 l 1
 563 861 l 1
192 579 m 1
 136 523 l 1
 99 523 l 1
 99 905 l 1
 130 936 l 1
 192 875 l 1
 192 861 l 1
 192 782 l 1
 192 579 l 1
592 546 m 1
 638 500 l 1
 592 454 l 1
 578 454 l 1
 501 454 l 1
 461 454 l 1
 434 499 l 1
 462 546 l 1
 488 546 l 1
 592 546 l 1
EndSplineSet
EndChar

StartChar: ampersand
Encoding: 38 38 57
Width: 816
VWidth: 200
Flags: HW
LayerCount: 2
Fore
SplineSet
315 407 m 1
 315 247 l 1
 253 139 l 1
 238 139 l 1
 238 298 l 1
 301 407 l 1
 315 407 l 1
315 593 m 1
 301 593 l 1
 238 702 l 1
 238 861 l 1
 253 861 l 1
 315 753 l 1
 315 593 l 1
163 969 m 1
 194 1000 l 1
 622 1000 l 1
 653 969 l 1
 592 907 l 1
 590 907 l 1
 454 907 l 1
 362 907 l 1
 226 907 l 1
 224 907 l 1
 163 969 l 1
501 407 m 1
 515 407 l 1
 578 298 l 1
 578 139 l 1
 563 139 l 1
 501 247 l 1
 501 407 l 1
653 31 m 1
 622 0 l 1
 194 0 l 1
 163 31 l 1
 224 93 l 1
 226 93 l 1
 362 93 l 1
 454 93 l 1
 590 93 l 1
 592 93 l 1
 653 31 l 1
624 421 m 1
 680 477 l 1
 717 477 l 1
 717 95 l 1
 686 64 l 1
 624 125 l 1
 624 139 l 1
 624 218 l 1
 624 421 l 1
563 861 m 1
 578 861 l 1
 578 702 l 1
 515 593 l 1
 501 593 l 1
 501 753 l 1
 563 861 l 1
EndSplineSet
EndChar

StartChar: comma
Encoding: 44 44 58
Width: 816
VWidth: 200
Flags: HW
LayerCount: 2
Fore
SplineSet
315 407 m 1
 315 247 l 1
 253 139 l 1
 238 139 l 1
 238 298 l 1
 301 407 l 1
 315 407 l 1
EndSplineSet
EndChar

StartChar: brokenbar
Encoding: 166 166 59
Width: 816
VWidth: 200
Flags: HW
LayerCount: 2
Fore
SplineSet
454 157 m 1
 454 139 l 1
 362 139 l 1
 362 327 l 1
 362 373 l 1
 408 453 l 1
 454 372 l 1
 454 327 l 1
 454 157 l 1
362 861 m 1
 454 861 l 1
 454 673 l 1
 454 627 l 1
 408 546 l 1
 362 625 l 1
 362 673 l 1
 362 861 l 1
EndSplineSet
EndChar

StartChar: grave
Encoding: 96 96 60
Width: 816
VWidth: 200
Flags: HW
LayerCount: 2
Fore
SplineSet
315 593 m 1
 301 593 l 1
 238 702 l 1
 238 861 l 1
 253 861 l 1
 315 753 l 1
 315 593 l 1
EndSplineSet
EndChar

StartChar: plusminus
Encoding: 177 177 61
Width: 816
VWidth: 200
Flags: HW
LayerCount: 2
Fore
SplineSet
454 157 m 1
 454 139 l 1
 362 139 l 1
 362 327 l 1
 362 373 l 1
 408 453 l 1
 454 372 l 1
 454 327 l 1
 454 157 l 1
224 454 m 1
 178 500 l 1
 224 546 l 1
 328 546 l 1
 354 546 l 1
 381 499 l 1
 354 454 l 1
 238 454 l 1
 224 454 l 1
362 861 m 1
 454 861 l 1
 454 673 l 1
 454 627 l 1
 408 546 l 1
 362 625 l 1
 362 673 l 1
 362 861 l 1
653 31 m 1
 622 0 l 1
 194 0 l 1
 163 31 l 1
 224 93 l 1
 226 93 l 1
 362 93 l 1
 454 93 l 1
 590 93 l 1
 592 93 l 1
 653 31 l 1
592 546 m 1
 638 500 l 1
 592 454 l 1
 578 454 l 1
 501 454 l 1
 461 454 l 1
 434 499 l 1
 462 546 l 1
 488 546 l 1
 592 546 l 1
EndSplineSet
EndChar

StartChar: asciitilde
Encoding: 126 126 62
Width: 816
VWidth: 200
Flags: HW
LayerCount: 2
Fore
SplineSet
454 157 m 1
 454 139 l 1
 362 139 l 1
 362 327 l 1
 362 373 l 1
 408 453 l 1
 454 372 l 1
 454 327 l 1
 454 157 l 1
224 454 m 1
 178 500 l 1
 224 546 l 1
 328 546 l 1
 354 546 l 1
 381 499 l 1
 354 454 l 1
 238 454 l 1
 224 454 l 1
315 407 m 1
 315 247 l 1
 253 139 l 1
 238 139 l 1
 238 298 l 1
 301 407 l 1
 315 407 l 1
315 593 m 1
 301 593 l 1
 238 702 l 1
 238 861 l 1
 253 861 l 1
 315 753 l 1
 315 593 l 1
163 969 m 1
 194 1000 l 1
 622 1000 l 1
 653 969 l 1
 592 907 l 1
 590 907 l 1
 454 907 l 1
 362 907 l 1
 226 907 l 1
 224 907 l 1
 163 969 l 1
501 407 m 1
 515 407 l 1
 578 298 l 1
 578 139 l 1
 563 139 l 1
 501 247 l 1
 501 407 l 1
362 861 m 1
 454 861 l 1
 454 673 l 1
 454 627 l 1
 408 546 l 1
 362 625 l 1
 362 673 l 1
 362 861 l 1
130 64 m 1
 99 95 l 1
 99 477 l 1
 136 477 l 1
 145 467 l 1
 192 421 l 1
 192 218 l 1
 192 139 l 1
 192 125 l 1
 130 64 l 1
653 31 m 1
 622 0 l 1
 194 0 l 1
 163 31 l 1
 224 93 l 1
 226 93 l 1
 362 93 l 1
 454 93 l 1
 590 93 l 1
 592 93 l 1
 653 31 l 1
624 421 m 1
 680 477 l 1
 717 477 l 1
 717 95 l 1
 686 64 l 1
 624 125 l 1
 624 139 l 1
 624 218 l 1
 624 421 l 1
686 936 m 1
 717 905 l 1
 717 523 l 1
 680 523 l 1
 624 579 l 1
 624 607 l 1
 624 782 l 1
 624 861 l 1
 624 874 l 1
 686 936 l 1
563 861 m 1
 578 861 l 1
 578 702 l 1
 515 593 l 1
 501 593 l 1
 501 753 l 1
 563 861 l 1
192 579 m 1
 136 523 l 1
 99 523 l 1
 99 905 l 1
 130 936 l 1
 192 875 l 1
 192 861 l 1
 192 782 l 1
 192 579 l 1
592 546 m 1
 638 500 l 1
 592 454 l 1
 578 454 l 1
 501 454 l 1
 461 454 l 1
 434 499 l 1
 462 546 l 1
 488 546 l 1
 592 546 l 1
EndSplineSet
EndChar

StartChar: o
Encoding: 111 111 63
Width: 816
VWidth: 200
Flags: HW
LayerCount: 2
Fore
SplineSet
163 969 m 1
 194 1000 l 1
 622 1000 l 1
 653 969 l 1
 592 907 l 1
 590 907 l 1
 454 907 l 1
 362 907 l 1
 226 907 l 1
 224 907 l 1
 163 969 l 1
130 64 m 1
 99 95 l 1
 99 477 l 1
 136 477 l 1
 145 467 l 1
 192 421 l 1
 192 218 l 1
 192 139 l 1
 192 125 l 1
 130 64 l 1
653 31 m 1
 622 0 l 1
 194 0 l 1
 163 31 l 1
 224 93 l 1
 226 93 l 1
 362 93 l 1
 454 93 l 1
 590 93 l 1
 592 93 l 1
 653 31 l 1
624 421 m 1
 680 477 l 1
 717 477 l 1
 717 95 l 1
 686 64 l 1
 624 125 l 1
 624 139 l 1
 624 218 l 1
 624 421 l 1
686 936 m 1
 717 905 l 1
 717 523 l 1
 680 523 l 1
 624 579 l 1
 624 607 l 1
 624 782 l 1
 624 861 l 1
 624 874 l 1
 686 936 l 1
192 579 m 1
 136 523 l 1
 99 523 l 1
 99 905 l 1
 130 936 l 1
 192 875 l 1
 192 861 l 1
 192 782 l 1
 192 579 l 1
EndSplineSet
EndChar

StartChar: bar
Encoding: 124 124 64
Width: 816
VWidth: 200
Flags: HW
LayerCount: 2
Fore
SplineSet
454 157 m 1
 454 139 l 1
 362 139 l 1
 362 327 l 1
 362 373 l 1
 408 453 l 1
 454 372 l 1
 454 327 l 1
 454 157 l 1
362 861 m 1
 454 861 l 1
 454 673 l 1
 454 627 l 1
 408 546 l 1
 362 625 l 1
 362 673 l 1
 362 861 l 1
EndSplineSet
EndChar

StartChar: a
Encoding: 97 97 65
Width: 816
VWidth: 200
Flags: HW
LayerCount: 2
Fore
SplineSet
224 454 m 1
 178 500 l 1
 224 546 l 1
 328 546 l 1
 354 546 l 1
 381 499 l 1
 354 454 l 1
 238 454 l 1
 224 454 l 1
163 969 m 1
 194 1000 l 1
 622 1000 l 1
 653 969 l 1
 592 907 l 1
 590 907 l 1
 454 907 l 1
 362 907 l 1
 226 907 l 1
 224 907 l 1
 163 969 l 1
130 64 m 1
 99 95 l 1
 99 477 l 1
 136 477 l 1
 145 467 l 1
 192 421 l 1
 192 218 l 1
 192 139 l 1
 192 125 l 1
 130 64 l 1
624 421 m 1
 680 477 l 1
 717 477 l 1
 717 95 l 1
 686 64 l 1
 624 125 l 1
 624 139 l 1
 624 218 l 1
 624 421 l 1
686 936 m 1
 717 905 l 1
 717 523 l 1
 680 523 l 1
 624 579 l 1
 624 607 l 1
 624 782 l 1
 624 861 l 1
 624 874 l 1
 686 936 l 1
192 579 m 1
 136 523 l 1
 99 523 l 1
 99 905 l 1
 130 936 l 1
 192 875 l 1
 192 861 l 1
 192 782 l 1
 192 579 l 1
592 546 m 1
 638 500 l 1
 592 454 l 1
 578 454 l 1
 501 454 l 1
 461 454 l 1
 434 499 l 1
 462 546 l 1
 488 546 l 1
 592 546 l 1
EndSplineSet
EndChar

StartChar: b
Encoding: 98 98 66
Width: 816
VWidth: 200
Flags: HW
LayerCount: 2
Fore
SplineSet
454 157 m 1
 454 139 l 1
 362 139 l 1
 362 327 l 1
 362 373 l 1
 408 453 l 1
 454 372 l 1
 454 327 l 1
 454 157 l 1
163 969 m 1
 194 1000 l 1
 622 1000 l 1
 653 969 l 1
 592 907 l 1
 590 907 l 1
 454 907 l 1
 362 907 l 1
 226 907 l 1
 224 907 l 1
 163 969 l 1
362 861 m 1
 454 861 l 1
 454 673 l 1
 454 627 l 1
 408 546 l 1
 362 625 l 1
 362 673 l 1
 362 861 l 1
653 31 m 1
 622 0 l 1
 194 0 l 1
 163 31 l 1
 224 93 l 1
 226 93 l 1
 362 93 l 1
 454 93 l 1
 590 93 l 1
 592 93 l 1
 653 31 l 1
624 421 m 1
 680 477 l 1
 717 477 l 1
 717 95 l 1
 686 64 l 1
 624 125 l 1
 624 139 l 1
 624 218 l 1
 624 421 l 1
686 936 m 1
 717 905 l 1
 717 523 l 1
 680 523 l 1
 624 579 l 1
 624 607 l 1
 624 782 l 1
 624 861 l 1
 624 874 l 1
 686 936 l 1
592 546 m 1
 638 500 l 1
 592 454 l 1
 578 454 l 1
 501 454 l 1
 461 454 l 1
 434 499 l 1
 462 546 l 1
 488 546 l 1
 592 546 l 1
EndSplineSet
EndChar

StartChar: c
Encoding: 99 99 67
Width: 816
VWidth: 200
Flags: HW
LayerCount: 2
Fore
SplineSet
163 969 m 1
 194 1000 l 1
 622 1000 l 1
 653 969 l 1
 592 907 l 1
 590 907 l 1
 454 907 l 1
 362 907 l 1
 226 907 l 1
 224 907 l 1
 163 969 l 1
130 64 m 1
 99 95 l 1
 99 477 l 1
 136 477 l 1
 145 467 l 1
 192 421 l 1
 192 218 l 1
 192 139 l 1
 192 125 l 1
 130 64 l 1
653 31 m 1
 622 0 l 1
 194 0 l 1
 163 31 l 1
 224 93 l 1
 226 93 l 1
 362 93 l 1
 454 93 l 1
 590 93 l 1
 592 93 l 1
 653 31 l 1
192 579 m 1
 136 523 l 1
 99 523 l 1
 99 905 l 1
 130 936 l 1
 192 875 l 1
 192 861 l 1
 192 782 l 1
 192 579 l 1
EndSplineSet
EndChar

StartChar: d
Encoding: 100 100 68
Width: 816
VWidth: 200
Flags: HW
LayerCount: 2
Fore
SplineSet
454 157 m 1
 454 139 l 1
 362 139 l 1
 362 327 l 1
 362 373 l 1
 408 453 l 1
 454 372 l 1
 454 327 l 1
 454 157 l 1
163 969 m 1
 194 1000 l 1
 622 1000 l 1
 653 969 l 1
 592 907 l 1
 590 907 l 1
 454 907 l 1
 362 907 l 1
 226 907 l 1
 224 907 l 1
 163 969 l 1
362 861 m 1
 454 861 l 1
 454 673 l 1
 454 627 l 1
 408 546 l 1
 362 625 l 1
 362 673 l 1
 362 861 l 1
653 31 m 1
 622 0 l 1
 194 0 l 1
 163 31 l 1
 224 93 l 1
 226 93 l 1
 362 93 l 1
 454 93 l 1
 590 93 l 1
 592 93 l 1
 653 31 l 1
624 421 m 1
 680 477 l 1
 717 477 l 1
 717 95 l 1
 686 64 l 1
 624 125 l 1
 624 139 l 1
 624 218 l 1
 624 421 l 1
686 936 m 1
 717 905 l 1
 717 523 l 1
 680 523 l 1
 624 579 l 1
 624 607 l 1
 624 782 l 1
 624 861 l 1
 624 874 l 1
 686 936 l 1
EndSplineSet
EndChar

StartChar: e
Encoding: 101 101 69
Width: 816
VWidth: 200
Flags: HW
LayerCount: 2
Fore
SplineSet
224 454 m 1
 178 500 l 1
 224 546 l 1
 328 546 l 1
 354 546 l 1
 381 499 l 1
 354 454 l 1
 238 454 l 1
 224 454 l 1
163 969 m 1
 194 1000 l 1
 622 1000 l 1
 653 969 l 1
 592 907 l 1
 590 907 l 1
 454 907 l 1
 362 907 l 1
 226 907 l 1
 224 907 l 1
 163 969 l 1
130 64 m 1
 99 95 l 1
 99 477 l 1
 136 477 l 1
 145 467 l 1
 192 421 l 1
 192 218 l 1
 192 139 l 1
 192 125 l 1
 130 64 l 1
653 31 m 1
 622 0 l 1
 194 0 l 1
 163 31 l 1
 224 93 l 1
 226 93 l 1
 362 93 l 1
 454 93 l 1
 590 93 l 1
 592 93 l 1
 653 31 l 1
192 579 m 1
 136 523 l 1
 99 523 l 1
 99 905 l 1
 130 936 l 1
 192 875 l 1
 192 861 l 1
 192 782 l 1
 192 579 l 1
592 546 m 1
 638 500 l 1
 592 454 l 1
 578 454 l 1
 501 454 l 1
 461 454 l 1
 434 499 l 1
 462 546 l 1
 488 546 l 1
 592 546 l 1
EndSplineSet
EndChar

StartChar: f
Encoding: 102 102 70
Width: 816
VWidth: 200
Flags: HW
LayerCount: 2
Fore
SplineSet
224 454 m 1
 178 500 l 1
 224 546 l 1
 328 546 l 1
 354 546 l 1
 381 499 l 1
 354 454 l 1
 238 454 l 1
 224 454 l 1
163 969 m 1
 194 1000 l 1
 622 1000 l 1
 653 969 l 1
 592 907 l 1
 590 907 l 1
 454 907 l 1
 362 907 l 1
 226 907 l 1
 224 907 l 1
 163 969 l 1
130 64 m 1
 99 95 l 1
 99 477 l 1
 136 477 l 1
 145 467 l 1
 192 421 l 1
 192 218 l 1
 192 139 l 1
 192 125 l 1
 130 64 l 1
192 579 m 1
 136 523 l 1
 99 523 l 1
 99 905 l 1
 130 936 l 1
 192 875 l 1
 192 861 l 1
 192 782 l 1
 192 579 l 1
592 546 m 1
 638 500 l 1
 592 454 l 1
 578 454 l 1
 501 454 l 1
 461 454 l 1
 434 499 l 1
 462 546 l 1
 488 546 l 1
 592 546 l 1
EndSplineSet
EndChar

StartChar: g
Encoding: 103 103 71
Width: 816
VWidth: 200
Flags: HW
LayerCount: 2
Fore
SplineSet
163 969 m 1
 194 1000 l 1
 622 1000 l 1
 653 969 l 1
 592 907 l 1
 590 907 l 1
 454 907 l 1
 362 907 l 1
 226 907 l 1
 224 907 l 1
 163 969 l 1
130 64 m 1
 99 95 l 1
 99 477 l 1
 136 477 l 1
 145 467 l 1
 192 421 l 1
 192 218 l 1
 192 139 l 1
 192 125 l 1
 130 64 l 1
653 31 m 1
 622 0 l 1
 194 0 l 1
 163 31 l 1
 224 93 l 1
 226 93 l 1
 362 93 l 1
 454 93 l 1
 590 93 l 1
 592 93 l 1
 653 31 l 1
624 421 m 1
 680 477 l 1
 717 477 l 1
 717 95 l 1
 686 64 l 1
 624 125 l 1
 624 139 l 1
 624 218 l 1
 624 421 l 1
192 579 m 1
 136 523 l 1
 99 523 l 1
 99 905 l 1
 130 936 l 1
 192 875 l 1
 192 861 l 1
 192 782 l 1
 192 579 l 1
592 546 m 1
 638 500 l 1
 592 454 l 1
 578 454 l 1
 501 454 l 1
 461 454 l 1
 434 499 l 1
 462 546 l 1
 488 546 l 1
 592 546 l 1
EndSplineSet
EndChar

StartChar: h
Encoding: 104 104 72
Width: 816
VWidth: 200
Flags: HW
LayerCount: 2
Fore
SplineSet
224 454 m 1
 178 500 l 1
 224 546 l 1
 328 546 l 1
 354 546 l 1
 381 499 l 1
 354 454 l 1
 238 454 l 1
 224 454 l 1
130 64 m 1
 99 95 l 1
 99 477 l 1
 136 477 l 1
 145 467 l 1
 192 421 l 1
 192 218 l 1
 192 139 l 1
 192 125 l 1
 130 64 l 1
624 421 m 1
 680 477 l 1
 717 477 l 1
 717 95 l 1
 686 64 l 1
 624 125 l 1
 624 139 l 1
 624 218 l 1
 624 421 l 1
686 936 m 1
 717 905 l 1
 717 523 l 1
 680 523 l 1
 624 579 l 1
 624 607 l 1
 624 782 l 1
 624 861 l 1
 624 874 l 1
 686 936 l 1
192 579 m 1
 136 523 l 1
 99 523 l 1
 99 905 l 1
 130 936 l 1
 192 875 l 1
 192 861 l 1
 192 782 l 1
 192 579 l 1
592 546 m 1
 638 500 l 1
 592 454 l 1
 578 454 l 1
 501 454 l 1
 461 454 l 1
 434 499 l 1
 462 546 l 1
 488 546 l 1
 592 546 l 1
EndSplineSet
EndChar

StartChar: i
Encoding: 105 105 73
Width: 816
VWidth: 200
Flags: HW
LayerCount: 2
Fore
SplineSet
454 157 m 1
 454 139 l 1
 362 139 l 1
 362 327 l 1
 362 373 l 1
 408 453 l 1
 454 372 l 1
 454 327 l 1
 454 157 l 1
163 969 m 1
 194 1000 l 1
 622 1000 l 1
 653 969 l 1
 592 907 l 1
 590 907 l 1
 454 907 l 1
 362 907 l 1
 226 907 l 1
 224 907 l 1
 163 969 l 1
362 861 m 1
 454 861 l 1
 454 673 l 1
 454 627 l 1
 408 546 l 1
 362 625 l 1
 362 673 l 1
 362 861 l 1
653 31 m 1
 622 0 l 1
 194 0 l 1
 163 31 l 1
 224 93 l 1
 226 93 l 1
 362 93 l 1
 454 93 l 1
 590 93 l 1
 592 93 l 1
 653 31 l 1
EndSplineSet
EndChar

StartChar: j
Encoding: 106 106 74
Width: 816
VWidth: 200
Flags: HW
LayerCount: 2
Fore
SplineSet
130 64 m 1
 99 95 l 1
 99 477 l 1
 136 477 l 1
 145 467 l 1
 192 421 l 1
 192 218 l 1
 192 139 l 1
 192 125 l 1
 130 64 l 1
653 31 m 1
 622 0 l 1
 194 0 l 1
 163 31 l 1
 224 93 l 1
 226 93 l 1
 362 93 l 1
 454 93 l 1
 590 93 l 1
 592 93 l 1
 653 31 l 1
624 421 m 1
 680 477 l 1
 717 477 l 1
 717 95 l 1
 686 64 l 1
 624 125 l 1
 624 139 l 1
 624 218 l 1
 624 421 l 1
686 936 m 1
 717 905 l 1
 717 523 l 1
 680 523 l 1
 624 579 l 1
 624 607 l 1
 624 782 l 1
 624 861 l 1
 624 874 l 1
 686 936 l 1
EndSplineSet
EndChar

StartChar: k
Encoding: 107 107 75
Width: 816
VWidth: 200
Flags: HW
LayerCount: 2
Fore
SplineSet
224 454 m 1
 178 500 l 1
 224 546 l 1
 328 546 l 1
 354 546 l 1
 381 499 l 1
 354 454 l 1
 238 454 l 1
 224 454 l 1
501 407 m 1
 515 407 l 1
 578 298 l 1
 578 139 l 1
 563 139 l 1
 501 247 l 1
 501 407 l 1
130 64 m 1
 99 95 l 1
 99 477 l 1
 136 477 l 1
 145 467 l 1
 192 421 l 1
 192 218 l 1
 192 139 l 1
 192 125 l 1
 130 64 l 1
563 861 m 1
 578 861 l 1
 578 702 l 1
 515 593 l 1
 501 593 l 1
 501 753 l 1
 563 861 l 1
192 579 m 1
 136 523 l 1
 99 523 l 1
 99 905 l 1
 130 936 l 1
 192 875 l 1
 192 861 l 1
 192 782 l 1
 192 579 l 1
EndSplineSet
EndChar

StartChar: l
Encoding: 108 108 76
Width: 816
VWidth: 200
Flags: HW
LayerCount: 2
Fore
SplineSet
130 64 m 1
 99 95 l 1
 99 477 l 1
 136 477 l 1
 145 467 l 1
 192 421 l 1
 192 218 l 1
 192 139 l 1
 192 125 l 1
 130 64 l 1
653 31 m 1
 622 0 l 1
 194 0 l 1
 163 31 l 1
 224 93 l 1
 226 93 l 1
 362 93 l 1
 454 93 l 1
 590 93 l 1
 592 93 l 1
 653 31 l 1
192 579 m 1
 136 523 l 1
 99 523 l 1
 99 905 l 1
 130 936 l 1
 192 875 l 1
 192 861 l 1
 192 782 l 1
 192 579 l 1
EndSplineSet
EndChar

StartChar: m
Encoding: 109 109 77
Width: 816
VWidth: 200
Flags: HW
LayerCount: 2
Fore
SplineSet
454 157 m 1
 454 139 l 1
 362 139 l 1
 362 327 l 1
 362 373 l 1
 408 453 l 1
 454 372 l 1
 454 327 l 1
 454 157 l 1
315 593 m 1
 301 593 l 1
 238 702 l 1
 238 861 l 1
 253 861 l 1
 315 753 l 1
 315 593 l 1
130 64 m 1
 99 95 l 1
 99 477 l 1
 136 477 l 1
 145 467 l 1
 192 421 l 1
 192 218 l 1
 192 139 l 1
 192 125 l 1
 130 64 l 1
624 421 m 1
 680 477 l 1
 717 477 l 1
 717 95 l 1
 686 64 l 1
 624 125 l 1
 624 139 l 1
 624 218 l 1
 624 421 l 1
686 936 m 1
 717 905 l 1
 717 523 l 1
 680 523 l 1
 624 579 l 1
 624 607 l 1
 624 782 l 1
 624 861 l 1
 624 874 l 1
 686 936 l 1
563 861 m 1
 578 861 l 1
 578 702 l 1
 515 593 l 1
 501 593 l 1
 501 753 l 1
 563 861 l 1
192 579 m 1
 136 523 l 1
 99 523 l 1
 99 905 l 1
 130 936 l 1
 192 875 l 1
 192 861 l 1
 192 782 l 1
 192 579 l 1
EndSplineSet
EndChar

StartChar: n
Encoding: 110 110 78
Width: 816
VWidth: 200
Flags: HW
LayerCount: 2
Fore
SplineSet
315 593 m 1
 301 593 l 1
 238 702 l 1
 238 861 l 1
 253 861 l 1
 315 753 l 1
 315 593 l 1
501 407 m 1
 515 407 l 1
 578 298 l 1
 578 139 l 1
 563 139 l 1
 501 247 l 1
 501 407 l 1
130 64 m 1
 99 95 l 1
 99 477 l 1
 136 477 l 1
 145 467 l 1
 192 421 l 1
 192 218 l 1
 192 139 l 1
 192 125 l 1
 130 64 l 1
624 421 m 1
 680 477 l 1
 717 477 l 1
 717 95 l 1
 686 64 l 1
 624 125 l 1
 624 139 l 1
 624 218 l 1
 624 421 l 1
686 936 m 1
 717 905 l 1
 717 523 l 1
 680 523 l 1
 624 579 l 1
 624 607 l 1
 624 782 l 1
 624 861 l 1
 624 874 l 1
 686 936 l 1
192 579 m 1
 136 523 l 1
 99 523 l 1
 99 905 l 1
 130 936 l 1
 192 875 l 1
 192 861 l 1
 192 782 l 1
 192 579 l 1
EndSplineSet
EndChar

StartChar: p
Encoding: 112 112 79
Width: 816
VWidth: 200
Flags: HW
LayerCount: 2
Fore
SplineSet
224 454 m 1
 178 500 l 1
 224 546 l 1
 328 546 l 1
 354 546 l 1
 381 499 l 1
 354 454 l 1
 238 454 l 1
 224 454 l 1
163 969 m 1
 194 1000 l 1
 622 1000 l 1
 653 969 l 1
 592 907 l 1
 590 907 l 1
 454 907 l 1
 362 907 l 1
 226 907 l 1
 224 907 l 1
 163 969 l 1
130 64 m 1
 99 95 l 1
 99 477 l 1
 136 477 l 1
 145 467 l 1
 192 421 l 1
 192 218 l 1
 192 139 l 1
 192 125 l 1
 130 64 l 1
686 936 m 1
 717 905 l 1
 717 523 l 1
 680 523 l 1
 624 579 l 1
 624 607 l 1
 624 782 l 1
 624 861 l 1
 624 874 l 1
 686 936 l 1
192 579 m 1
 136 523 l 1
 99 523 l 1
 99 905 l 1
 130 936 l 1
 192 875 l 1
 192 861 l 1
 192 782 l 1
 192 579 l 1
592 546 m 1
 638 500 l 1
 592 454 l 1
 578 454 l 1
 501 454 l 1
 461 454 l 1
 434 499 l 1
 462 546 l 1
 488 546 l 1
 592 546 l 1
EndSplineSet
EndChar

StartChar: q
Encoding: 113 113 80
Width: 816
VWidth: 200
Flags: HW
LayerCount: 2
Fore
SplineSet
163 969 m 1
 194 1000 l 1
 622 1000 l 1
 653 969 l 1
 592 907 l 1
 590 907 l 1
 454 907 l 1
 362 907 l 1
 226 907 l 1
 224 907 l 1
 163 969 l 1
501 407 m 1
 515 407 l 1
 578 298 l 1
 578 139 l 1
 563 139 l 1
 501 247 l 1
 501 407 l 1
130 64 m 1
 99 95 l 1
 99 477 l 1
 136 477 l 1
 145 467 l 1
 192 421 l 1
 192 218 l 1
 192 139 l 1
 192 125 l 1
 130 64 l 1
653 31 m 1
 622 0 l 1
 194 0 l 1
 163 31 l 1
 224 93 l 1
 226 93 l 1
 362 93 l 1
 454 93 l 1
 590 93 l 1
 592 93 l 1
 653 31 l 1
624 421 m 1
 680 477 l 1
 717 477 l 1
 717 95 l 1
 686 64 l 1
 624 125 l 1
 624 139 l 1
 624 218 l 1
 624 421 l 1
686 936 m 1
 717 905 l 1
 717 523 l 1
 680 523 l 1
 624 579 l 1
 624 607 l 1
 624 782 l 1
 624 861 l 1
 624 874 l 1
 686 936 l 1
192 579 m 1
 136 523 l 1
 99 523 l 1
 99 905 l 1
 130 936 l 1
 192 875 l 1
 192 861 l 1
 192 782 l 1
 192 579 l 1
EndSplineSet
EndChar

StartChar: r
Encoding: 114 114 81
Width: 816
VWidth: 200
Flags: HW
LayerCount: 2
Fore
SplineSet
224 454 m 1
 178 500 l 1
 224 546 l 1
 328 546 l 1
 354 546 l 1
 381 499 l 1
 354 454 l 1
 238 454 l 1
 224 454 l 1
163 969 m 1
 194 1000 l 1
 622 1000 l 1
 653 969 l 1
 592 907 l 1
 590 907 l 1
 454 907 l 1
 362 907 l 1
 226 907 l 1
 224 907 l 1
 163 969 l 1
501 407 m 1
 515 407 l 1
 578 298 l 1
 578 139 l 1
 563 139 l 1
 501 247 l 1
 501 407 l 1
130 64 m 1
 99 95 l 1
 99 477 l 1
 136 477 l 1
 145 467 l 1
 192 421 l 1
 192 218 l 1
 192 139 l 1
 192 125 l 1
 130 64 l 1
686 936 m 1
 717 905 l 1
 717 523 l 1
 680 523 l 1
 624 579 l 1
 624 607 l 1
 624 782 l 1
 624 861 l 1
 624 874 l 1
 686 936 l 1
192 579 m 1
 136 523 l 1
 99 523 l 1
 99 905 l 1
 130 936 l 1
 192 875 l 1
 192 861 l 1
 192 782 l 1
 192 579 l 1
592 546 m 1
 638 500 l 1
 592 454 l 1
 578 454 l 1
 501 454 l 1
 461 454 l 1
 434 499 l 1
 462 546 l 1
 488 546 l 1
 592 546 l 1
EndSplineSet
EndChar

StartChar: s
Encoding: 115 115 82
Width: 816
VWidth: 200
Flags: HW
LayerCount: 2
Fore
SplineSet
224 454 m 1
 178 500 l 1
 224 546 l 1
 328 546 l 1
 354 546 l 1
 381 499 l 1
 354 454 l 1
 238 454 l 1
 224 454 l 1
315 593 m 1
 301 593 l 1
 238 702 l 1
 238 861 l 1
 253 861 l 1
 315 753 l 1
 315 593 l 1
163 969 m 1
 194 1000 l 1
 622 1000 l 1
 653 969 l 1
 592 907 l 1
 590 907 l 1
 454 907 l 1
 362 907 l 1
 226 907 l 1
 224 907 l 1
 163 969 l 1
501 407 m 1
 515 407 l 1
 578 298 l 1
 578 139 l 1
 563 139 l 1
 501 247 l 1
 501 407 l 1
653 31 m 1
 622 0 l 1
 194 0 l 1
 163 31 l 1
 224 93 l 1
 226 93 l 1
 362 93 l 1
 454 93 l 1
 590 93 l 1
 592 93 l 1
 653 31 l 1
624 421 m 1
 680 477 l 1
 717 477 l 1
 717 95 l 1
 686 64 l 1
 624 125 l 1
 624 139 l 1
 624 218 l 1
 624 421 l 1
192 579 m 1
 136 523 l 1
 99 523 l 1
 99 905 l 1
 130 936 l 1
 192 875 l 1
 192 861 l 1
 192 782 l 1
 192 579 l 1
592 546 m 1
 638 500 l 1
 592 454 l 1
 578 454 l 1
 501 454 l 1
 461 454 l 1
 434 499 l 1
 462 546 l 1
 488 546 l 1
 592 546 l 1
EndSplineSet
EndChar

StartChar: t
Encoding: 116 116 83
Width: 816
VWidth: 200
Flags: HW
LayerCount: 2
Fore
SplineSet
454 157 m 1
 454 139 l 1
 362 139 l 1
 362 327 l 1
 362 373 l 1
 408 453 l 1
 454 372 l 1
 454 327 l 1
 454 157 l 1
163 969 m 1
 194 1000 l 1
 622 1000 l 1
 653 969 l 1
 592 907 l 1
 590 907 l 1
 454 907 l 1
 362 907 l 1
 226 907 l 1
 224 907 l 1
 163 969 l 1
362 861 m 1
 454 861 l 1
 454 673 l 1
 454 627 l 1
 408 546 l 1
 362 625 l 1
 362 673 l 1
 362 861 l 1
EndSplineSet
EndChar

StartChar: u
Encoding: 117 117 84
Width: 816
VWidth: 200
Flags: HW
LayerCount: 2
Fore
SplineSet
130 64 m 1
 99 95 l 1
 99 477 l 1
 136 477 l 1
 145 467 l 1
 192 421 l 1
 192 218 l 1
 192 139 l 1
 192 125 l 1
 130 64 l 1
653 31 m 1
 622 0 l 1
 194 0 l 1
 163 31 l 1
 224 93 l 1
 226 93 l 1
 362 93 l 1
 454 93 l 1
 590 93 l 1
 592 93 l 1
 653 31 l 1
624 421 m 1
 680 477 l 1
 717 477 l 1
 717 95 l 1
 686 64 l 1
 624 125 l 1
 624 139 l 1
 624 218 l 1
 624 421 l 1
686 936 m 1
 717 905 l 1
 717 523 l 1
 680 523 l 1
 624 579 l 1
 624 607 l 1
 624 782 l 1
 624 861 l 1
 624 874 l 1
 686 936 l 1
192 579 m 1
 136 523 l 1
 99 523 l 1
 99 905 l 1
 130 936 l 1
 192 875 l 1
 192 861 l 1
 192 782 l 1
 192 579 l 1
EndSplineSet
EndChar

StartChar: v
Encoding: 118 118 85
Width: 816
VWidth: 200
Flags: HW
LayerCount: 2
Fore
SplineSet
315 407 m 1
 315 247 l 1
 253 139 l 1
 238 139 l 1
 238 298 l 1
 301 407 l 1
 315 407 l 1
130 64 m 1
 99 95 l 1
 99 477 l 1
 136 477 l 1
 145 467 l 1
 192 421 l 1
 192 218 l 1
 192 139 l 1
 192 125 l 1
 130 64 l 1
563 861 m 1
 578 861 l 1
 578 702 l 1
 515 593 l 1
 501 593 l 1
 501 753 l 1
 563 861 l 1
192 579 m 1
 136 523 l 1
 99 523 l 1
 99 905 l 1
 130 936 l 1
 192 875 l 1
 192 861 l 1
 192 782 l 1
 192 579 l 1
EndSplineSet
EndChar

StartChar: w
Encoding: 119 119 86
Width: 816
VWidth: 200
Flags: HW
LayerCount: 2
Fore
SplineSet
315 407 m 1
 315 247 l 1
 253 139 l 1
 238 139 l 1
 238 298 l 1
 301 407 l 1
 315 407 l 1
501 407 m 1
 515 407 l 1
 578 298 l 1
 578 139 l 1
 563 139 l 1
 501 247 l 1
 501 407 l 1
362 861 m 1
 454 861 l 1
 454 673 l 1
 454 627 l 1
 408 546 l 1
 362 625 l 1
 362 673 l 1
 362 861 l 1
130 64 m 1
 99 95 l 1
 99 477 l 1
 136 477 l 1
 145 467 l 1
 192 421 l 1
 192 218 l 1
 192 139 l 1
 192 125 l 1
 130 64 l 1
624 421 m 1
 680 477 l 1
 717 477 l 1
 717 95 l 1
 686 64 l 1
 624 125 l 1
 624 139 l 1
 624 218 l 1
 624 421 l 1
686 936 m 1
 717 905 l 1
 717 523 l 1
 680 523 l 1
 624 579 l 1
 624 607 l 1
 624 782 l 1
 624 861 l 1
 624 874 l 1
 686 936 l 1
192 579 m 1
 136 523 l 1
 99 523 l 1
 99 905 l 1
 130 936 l 1
 192 875 l 1
 192 861 l 1
 192 782 l 1
 192 579 l 1
EndSplineSet
EndChar

StartChar: x
Encoding: 120 120 87
Width: 816
VWidth: 200
Flags: HW
LayerCount: 2
Fore
SplineSet
315 407 m 1
 315 247 l 1
 253 139 l 1
 238 139 l 1
 238 298 l 1
 301 407 l 1
 315 407 l 1
315 593 m 1
 301 593 l 1
 238 702 l 1
 238 861 l 1
 253 861 l 1
 315 753 l 1
 315 593 l 1
501 407 m 1
 515 407 l 1
 578 298 l 1
 578 139 l 1
 563 139 l 1
 501 247 l 1
 501 407 l 1
563 861 m 1
 578 861 l 1
 578 702 l 1
 515 593 l 1
 501 593 l 1
 501 753 l 1
 563 861 l 1
EndSplineSet
EndChar

StartChar: y
Encoding: 121 121 88
Width: 816
VWidth: 200
Flags: HW
LayerCount: 2
Fore
SplineSet
454 157 m 1
 454 139 l 1
 362 139 l 1
 362 327 l 1
 362 373 l 1
 408 453 l 1
 454 372 l 1
 454 327 l 1
 454 157 l 1
315 593 m 1
 301 593 l 1
 238 702 l 1
 238 861 l 1
 253 861 l 1
 315 753 l 1
 315 593 l 1
563 861 m 1
 578 861 l 1
 578 702 l 1
 515 593 l 1
 501 593 l 1
 501 753 l 1
 563 861 l 1
EndSplineSet
EndChar

StartChar: z
Encoding: 122 122 89
Width: 816
VWidth: 200
Flags: HW
LayerCount: 2
Fore
SplineSet
315 407 m 1
 315 247 l 1
 253 139 l 1
 238 139 l 1
 238 298 l 1
 301 407 l 1
 315 407 l 1
163 969 m 1
 194 1000 l 1
 622 1000 l 1
 653 969 l 1
 592 907 l 1
 590 907 l 1
 454 907 l 1
 362 907 l 1
 226 907 l 1
 224 907 l 1
 163 969 l 1
653 31 m 1
 622 0 l 1
 194 0 l 1
 163 31 l 1
 224 93 l 1
 226 93 l 1
 362 93 l 1
 454 93 l 1
 590 93 l 1
 592 93 l 1
 653 31 l 1
563 861 m 1
 578 861 l 1
 578 702 l 1
 515 593 l 1
 501 593 l 1
 501 753 l 1
 563 861 l 1
EndSplineSet
EndChar

StartChar: degree
Encoding: 176 176 92
Width: 816
VWidth: 200
Flags: HW
LayerCount: 2
Fore
SplineSet
224 454 m 1
 178 500 l 1
 224 546 l 1
 328 546 l 1
 354 546 l 1
 381 499 l 1
 354 454 l 1
 238 454 l 1
 224 454 l 1
163 969 m 1
 194 1000 l 1
 622 1000 l 1
 653 969 l 1
 592 907 l 1
 590 907 l 1
 454 907 l 1
 362 907 l 1
 226 907 l 1
 224 907 l 1
 163 969 l 1
686 936 m 1
 717 905 l 1
 717 523 l 1
 680 523 l 1
 624 579 l 1
 624 607 l 1
 624 782 l 1
 624 861 l 1
 624 874 l 1
 686 936 l 1
192 579 m 1
 136 523 l 1
 99 523 l 1
 99 905 l 1
 130 936 l 1
 192 875 l 1
 192 861 l 1
 192 782 l 1
 192 579 l 1
592 546 m 1
 638 500 l 1
 592 454 l 1
 578 454 l 1
 501 454 l 1
 461 454 l 1
 434 499 l 1
 462 546 l 1
 488 546 l 1
 592 546 l 1
EndSplineSet
EndChar
